M48
;Layer_Color=9474304
;FILE_FORMAT=2:5
INCH,LZ
;TYPE=PLATED
T1F00S00C0.01181
T2F00S00C0.02362
%
T01
X03205Y02005
X0321Y0211
Y02155
X0320884Y0228884
X03205Y02345
X032Y02415
X0319168Y0295494
X0313262
X0316215Y0301399
X0313262Y0307305
X0319168
X0307357
X0304Y03065
X0310309Y0301399
Y0289588
X03045Y0295
X0305Y02825
Y02765
X03055Y02715
X0305523Y0265
X03105Y02605
X03095Y0255
X03085Y0251
X02945
X02765Y026384
X02755Y0274
X0275Y02795
X0274Y0288
Y02915
X0269Y0294318
X0279Y02875
X02705Y03105
X0259423Y0309
X0256Y0277
X0242842Y0272664
X0243615Y0269
X024Y02495
X0246666Y0244
X02415Y0229
X0236468Y02293
X022539Y0227234
X0221647Y0226539
X02154Y0226
X02171Y0229
X0211Y02265
X01945Y0229272
X0185708Y0229174
X01822Y02296
X01823Y02262
X0167471Y02265
X0164166Y0225427
X0162Y02285
X01747Y02401
X01789Y02415
X01715Y02475
X01725Y0251
X01709Y0254407
X01758Y02535
X0181Y02555
X01845Y02565
X0188Y02525
X0186Y02495
X0191Y02575
X01945Y02615
X0192478Y02645
X0198072Y02655
X01995Y02605
X0204288Y0262788
X0205219Y0266719
X0212826Y0266349
X0211119Y0257833
X02045Y0242
X02224Y02409
X0226185Y02415
X0253214Y02295
X02645
Y0234
X0265Y02385
X02755Y023906
X0276701Y0235701
X0276Y02285
X0280782Y0230533
X0283735Y0224628
X026425Y02235
X0265Y0212
X02606
X02625Y0209
Y0205638
X0261207Y0189298
X0257Y01895
X025716Y0183289
X0263065
X0268971
X0274876
X0280782
X0286687
X0292593
X0298498
X0297Y0189
X0301451Y0189195
X0292Y0189
X028964Y0177383
X0295546
X0301451
X0283735
X0277829
X0266018Y0189195
X0251254Y0183289
X02775Y02086
X02745Y0211795
X0301451Y0212817
X031Y02135
X03085Y02185
X0308081Y0223102
X03095Y0229
X0308925Y02345
X03075Y02075
X03055Y02015
X02653Y02549
X02604Y02541
X0256079Y0255121
X0228031Y02795
X0216Y0282
X02185Y0285
X0208
X0213116Y0290385
X0197Y029
X01925Y0286
X01895Y02815
X0185Y0281
X0187207Y0276207
X018Y0276
X0177Y02825
X01675Y02815
Y02775
X0167Y028603
X0164202Y0283498
X0160145Y0282538
X0163Y02885
X01655Y0292
X0166Y0297
X0161753Y02945
X0162Y0300223
X01575Y02975
X01579Y02743
X01575Y02665
X0186261Y026717
X0197Y0276
X0202Y0279
X02055Y0277
X01845Y030807
X0181Y0309
X0177502Y0310002
X0180388Y01951
X017153Y0189195
X0174483Y0183289
X0168577
X0162672
X0156766
X0186294
X0150861
X0144955
X0142002Y0189195
X0147908
X0153813
X0139381Y02018
Y0206578
X0144955Y0218722
X01468Y0225
X0150637Y0222637
X01442Y02299
X01462Y02499
X0146272Y0259968
X0146449Y0263331
X01555Y02635
X0138Y0272
Y0277
X0136097Y0283683
X01445Y02845
X01375Y0292
Y02965
X013905Y0301399
X0146306Y0303685
X0144Y03085
X01405Y03095
X01365
X0137Y03245
X0136097Y0330927
X0142002
X0147908
X0153813
X01546Y03379
X01508Y03399
X0144955Y0336832
X013905
X0144955Y0325021
X0150726Y0358126
X0154003Y0358412
X0156766Y0325021
X0159719Y0319116
X0169776Y0329767
X0174Y0326
X0179Y0325
X0184777Y0329842
X0189659Y03285
X0197503Y0329666
X01956Y03244
X01933Y03215
X0205371Y0324829
X0212Y0325
X02175Y03255
X0220998Y0325498
X0224498
X02155Y03395
X02145Y0343
X0211978Y03455
X02094Y0348125
X0206037Y0348973
X0203329Y0355477
X0203431Y0358819
X02032Y03415
X02009Y03389
X01961Y03383
X0196195Y0346325
X02355Y0357732
X024
X02775Y03575
X02788Y03487
X02704Y03474
X0267431Y0344884
X02685Y0325
X0272Y0321
X027Y031597
X028964Y0319116
X0295546
X0301451
X0307357
X0310309Y031321
X0304404
X0298498
Y0325021
X02925Y03285
X028964Y0330927
X0283735
X0286687Y0336832
X0292593
X0298498
X03075Y0337
X0307357Y0342738
X0310309Y0348643
X0304404
X0301451Y0354549
X0307357
X02949Y03449
X0313262Y0342738
X0319168
X0316215Y0348643
X0313262Y0354549
X0319168
X03188Y03331
X0316215Y0325021
X0313262Y0319116
X0319168
X0316215Y031321
T02
X0177Y0177
X0182
X0187
X0192
X0197
X0202
X0207
X0212
X0217
X0222
X0227
X0232
X0237
X0242
X0247
X0252
X0257
X0262
X0267
X0272
M30
