%TF.GenerationSoftware,Altium Limited,Altium Designer,20.2.5 (213)*%
G04 Layer_Color=16711935*
%FSLAX44Y44*%
%MOMM*%
%TF.SameCoordinates,159794D8-7842-4491-B27A-FE66E37C9FAE*%
%TF.FilePolarity,Negative*%
%TF.FileFunction,Soldermask,Bot*%
%TF.Part,Single*%
G01*
G75*
%TA.AperFunction,SMDPad,CuDef*%
%ADD44R,1.1938X0.5080*%
D44*
X685546Y510680D02*
D03*
Y518680D02*
D03*
Y526680D02*
D03*
Y534680D02*
D03*
Y542680D02*
D03*
Y550680D02*
D03*
Y558680D02*
D03*
Y566680D02*
D03*
Y574680D02*
D03*
Y582680D02*
D03*
Y590680D02*
D03*
Y598680D02*
D03*
Y606680D02*
D03*
Y614680D02*
D03*
Y622680D02*
D03*
Y630680D02*
D03*
Y638680D02*
D03*
Y646680D02*
D03*
Y654680D02*
D03*
Y662680D02*
D03*
Y670680D02*
D03*
Y678680D02*
D03*
Y686680D02*
D03*
Y694680D02*
D03*
Y702680D02*
D03*
Y710680D02*
D03*
Y718680D02*
D03*
X800354D02*
D03*
Y710680D02*
D03*
Y702680D02*
D03*
Y694680D02*
D03*
Y686680D02*
D03*
Y678680D02*
D03*
Y670680D02*
D03*
Y662680D02*
D03*
Y654680D02*
D03*
Y646680D02*
D03*
Y638680D02*
D03*
Y630680D02*
D03*
Y622680D02*
D03*
Y614680D02*
D03*
Y606680D02*
D03*
Y598680D02*
D03*
Y590680D02*
D03*
Y582680D02*
D03*
Y574680D02*
D03*
Y566680D02*
D03*
Y558680D02*
D03*
Y550680D02*
D03*
Y542680D02*
D03*
Y534680D02*
D03*
Y526680D02*
D03*
Y518680D02*
D03*
Y510680D02*
D03*
%TF.MD5,333e6a38e145b3e619f269f84ff0a4bf*%
M02*
