%TF.GenerationSoftware,Altium Limited,Altium Designer,20.2.5 (213)*%
G04 Layer_Physical_Order=3*
G04 Layer_Color=16440176*
%FSLAX44Y44*%
%MOMM*%
%TF.SameCoordinates,159794D8-7842-4491-B27A-FE66E37C9FAE*%
%TF.FilePolarity,Positive*%
%TF.FileFunction,Copper,L3,Inr,Signal*%
%TF.Part,Single*%
G01*
G75*
%TA.AperFunction,Conductor*%
%ADD11C,0.1469*%
%ADD12C,0.1506*%
%TA.AperFunction,ComponentPad*%
%ADD28R,1.0000X1.0000*%
%ADD29C,1.0000*%
%TA.AperFunction,ViaPad*%
%ADD30C,0.6000*%
D11*
X601634Y719461D02*
G03*
X601634Y716626I1417J-1417D01*
G01*
X604216Y722043D02*
G03*
X604216Y724877I-1417J1417D01*
G01*
D02*
G03*
X601382Y724877I-1417J-1417D01*
G01*
X590672Y717002D02*
G03*
X593506Y717002I1417J1417D01*
G01*
X590672Y719836D02*
G03*
X590672Y717002I1417J-1417D01*
G01*
X601477Y730642D02*
G03*
X601477Y733476I-1417J1417D01*
G01*
X601477Y733476D02*
G03*
X598643Y733476I-1417J-1417D01*
G01*
X585003Y722671D02*
G03*
X587837Y722671I1417J1417D01*
G01*
X585003Y725505D02*
G03*
X585003Y722671I1417J-1417D01*
G01*
X595808Y736311D02*
G03*
X595808Y739145I-1417J1417D01*
G01*
X595808Y739145D02*
G03*
X592974Y739145I-1417J-1417D01*
G01*
X579334Y728340D02*
G03*
X582168Y728340I1417J1417D01*
G01*
X579334Y731174D02*
G03*
X579334Y728340I1417J-1417D01*
G01*
X590139Y741980D02*
G03*
X590139Y744814I-1417J1417D01*
G01*
X590139Y744814D02*
G03*
X587305Y744814I-1417J-1417D01*
G01*
X573665Y734008D02*
G03*
X576499Y734008I1417J1417D01*
G01*
X573665Y736843D02*
G03*
X573665Y734008I1417J-1417D01*
G01*
X584466Y747644D02*
G03*
X584466Y750478I-1417J1417D01*
G01*
X584466Y750478D02*
G03*
X581631Y750478I-1417J-1417D01*
G01*
X573289Y744971D02*
G03*
X576124Y744971I1417J1417D01*
G01*
X425106Y741680D02*
G03*
X426144Y742110I0J1469D01*
G01*
X439784Y755142D02*
G03*
X438746Y754712I0J-1469D01*
G01*
X442810Y749046D02*
G03*
X441784Y748616I12J-1469D01*
G01*
X425350Y732790D02*
G03*
X426388Y733220I0J1469D01*
G01*
X569644Y748616D02*
G03*
X568597Y749046I-1038J-1038D01*
G01*
X434186Y766318D02*
G03*
X433148Y765888I0J-1469D01*
G01*
X618412D02*
G03*
X617374Y766318I-1038J-1038D01*
G01*
X586408Y754712D02*
G03*
X585370Y755142I-1038J-1038D01*
G01*
X669466Y775794D02*
G03*
X668428Y776224I-1038J-1038D01*
G01*
X425745D02*
G03*
X424707Y775794I0J-1469D01*
G01*
X669727Y596463D02*
G03*
X668682Y596900I-1045J-1032D01*
G01*
X662358Y591386D02*
G03*
X661316Y591820I-1042J-1035D01*
G01*
X670384Y583360D02*
G03*
X671422Y582930I1038J1038D01*
G01*
X767985Y583410D02*
G03*
X769735Y581660I1750J0D01*
G01*
X767985Y583410D02*
G03*
X764485Y583410I-1750J0D01*
G01*
X762734Y581660D02*
G03*
X764485Y583410I0J1750D01*
G01*
X664364Y842518D02*
G03*
X665402Y842948I0J1469D01*
G01*
X408864Y608748D02*
G03*
X409294Y607722I1469J12D01*
G01*
X448820Y568196D02*
G03*
X449859Y567766I1038J1038D01*
G01*
X725408Y561514D02*
G03*
X725410Y561516I-1036J1041D01*
G01*
X724372Y561086D02*
G03*
X725408Y561514I0J1469D01*
G01*
X419178Y561516D02*
G03*
X420216Y561086I1038J1038D01*
G01*
X402514Y578788D02*
G03*
X402944Y577750I1469J0D01*
G01*
X732059Y555672D02*
G03*
X732061Y555674I-1036J1041D01*
G01*
X731022Y555244D02*
G03*
X732059Y555672I0J1469D01*
G01*
X417152Y555668D02*
G03*
X418184Y555244I1032J1045D01*
G01*
X741092Y550592D02*
G03*
X741094Y550594I-1036J1041D01*
G01*
X740056Y550164D02*
G03*
X741092Y550592I0J1469D01*
G01*
X412072Y550588D02*
G03*
X413104Y550164I1032J1045D01*
G01*
X666670Y654638D02*
G03*
X665634Y655066I-1036J-1041D01*
G01*
X666672Y654636D02*
G03*
X666670Y654638I-1038J-1038D01*
G01*
X591650Y655490D02*
G03*
X592682Y655066I1032J1045D01*
G01*
X734187Y826236D02*
G03*
X735226Y826666I-0J1469D01*
G01*
X506576Y842518D02*
G03*
X505538Y842088I0J-1469D01*
G01*
X662829Y569770D02*
G03*
X664833Y567766I2004J0D01*
G01*
X662829Y578985D02*
G03*
X658820Y578985I-2004J0D01*
G01*
X654812Y567581D02*
G03*
X658820Y567581I2004J0D01*
G01*
X654812Y586569D02*
G03*
X650804Y586569I-2004J0D01*
G01*
X646795Y567581D02*
G03*
X650804Y567581I2004J0D01*
G01*
X646795Y574651D02*
G03*
X642786Y574651I-2004J0D01*
G01*
X638778Y567581D02*
G03*
X642786Y567581I2004J0D01*
G01*
X638778Y576437D02*
G03*
X634769Y576437I-2004J0D01*
G01*
X632765Y567766D02*
G03*
X634769Y569770I0J2004D01*
G01*
X601307Y694698D02*
G03*
X601307Y691863I1417J-1417D01*
G01*
X606866Y700257D02*
G03*
X606866Y703091I-1417J1417D01*
G01*
X606866Y703092D02*
G03*
X604031Y703091I-1417J-1417D01*
G01*
X581992Y683886D02*
G03*
X584826Y683886I1417J1417D01*
G01*
X581992Y686721D02*
G03*
X581992Y683886I1417J-1417D01*
G01*
X603053Y707782D02*
G03*
X603053Y710616I-1417J1417D01*
G01*
X603053Y710616D02*
G03*
X600218Y710616I-1417J-1417D01*
G01*
X591084Y704316D02*
G03*
X593918Y704316I1417J1417D01*
G01*
X503475Y589816D02*
G03*
X501470Y591820I-2004J0D01*
G01*
X503475Y581480D02*
G03*
X507483Y581480I2004J0D01*
G01*
X511492Y590887D02*
G03*
X507483Y590887I-2004J0D01*
G01*
X511492Y578838D02*
G03*
X515500Y578838I2004J0D01*
G01*
X519509Y590887D02*
G03*
X515500Y590887I-2004J0D01*
G01*
X519509Y578838D02*
G03*
X523517Y578838I2004J0D01*
G01*
X527526Y590219D02*
G03*
X523517Y590219I-2004J0D01*
G01*
X527526Y583588D02*
G03*
X531534Y583588I2004J0D01*
G01*
X535543Y589909D02*
G03*
X531534Y589909I-2004J0D01*
G01*
X535543Y583588D02*
G03*
X539551Y583588I2004J0D01*
G01*
X541556Y591820D02*
G03*
X539551Y589816I0J-2004D01*
G01*
X681971Y626110D02*
G03*
X679967Y624106I0J-2004D01*
G01*
X675958Y620778D02*
G03*
X679967Y620778I2004J0D01*
G01*
X675958Y631527D02*
G03*
X671950Y631527I-2004J0D01*
G01*
X667941Y619498D02*
G03*
X671950Y619498I2004J0D01*
G01*
X667941Y631527D02*
G03*
X663933Y631527I-2004J0D01*
G01*
X659924Y619498D02*
G03*
X663933Y619498I2004J0D01*
G01*
X659924Y631527D02*
G03*
X655916Y631527I-2004J0D01*
G01*
X651907Y619498D02*
G03*
X655916Y619498I2004J0D01*
G01*
X651907Y631527D02*
G03*
X647899Y631527I-2004J0D01*
G01*
X645894Y626110D02*
G03*
X647899Y628114I0J2004D01*
G01*
X521828Y596900D02*
G03*
X523833Y598904I0J2004D01*
G01*
X527841Y599777D02*
G03*
X523833Y599777I-2004J0D01*
G01*
X527841Y597833D02*
G03*
X531850Y597833I2004J0D01*
G01*
X535858Y599777D02*
G03*
X531850Y599777I-2004J0D01*
G01*
X535858Y597833D02*
G03*
X539867Y597833I2004J0D01*
G01*
X543875Y599777D02*
G03*
X539867Y599777I-2004J0D01*
G01*
X543875Y597833D02*
G03*
X547884Y597833I2004J0D01*
G01*
X551892Y599777D02*
G03*
X547884Y599777I-2004J0D01*
G01*
X551892Y597833D02*
G03*
X555901Y597833I2004J0D01*
G01*
X559909Y599777D02*
G03*
X555901Y599777I-2004J0D01*
G01*
X559909Y597833D02*
G03*
X563918Y597833I2004J0D01*
G01*
X567926Y599777D02*
G03*
X563918Y599777I-2004J0D01*
G01*
X567926Y597833D02*
G03*
X571935Y597833I2004J0D01*
G01*
X575943Y599777D02*
G03*
X571935Y599777I-2004J0D01*
G01*
X575943Y597833D02*
G03*
X579952Y597833I2004J0D01*
G01*
X583960Y599777D02*
G03*
X579952Y599777I-2004J0D01*
G01*
X583960Y597833D02*
G03*
X587969Y597833I2004J0D01*
G01*
X591978Y599777D02*
G03*
X587969Y599777I-2004J0D01*
G01*
X591978Y597833D02*
G03*
X595986Y597833I2004J0D01*
G01*
X599995Y599777D02*
G03*
X595986Y599777I-2004J0D01*
G01*
X599995Y597833D02*
G03*
X604003Y597833I2004J0D01*
G01*
X608012Y599777D02*
G03*
X604003Y599777I-2004J0D01*
G01*
X608012Y597833D02*
G03*
X612020Y597833I2004J0D01*
G01*
X616029Y599777D02*
G03*
X612020Y599777I-2004J0D01*
G01*
X616029Y597833D02*
G03*
X620037Y597833I2004J0D01*
G01*
X624046Y599777D02*
G03*
X620037Y599777I-2004J0D01*
G01*
X624046Y597833D02*
G03*
X628054Y597833I2004J0D01*
G01*
X632063Y599777D02*
G03*
X628054Y599777I-2004J0D01*
G01*
X632063Y598904D02*
G03*
X634067Y596900I2004J0D01*
G01*
X463677Y603250D02*
G03*
X465682Y605254I0J2004D01*
G01*
X469690Y611563D02*
G03*
X465682Y611563I-2004J0D01*
G01*
X469690Y602913D02*
G03*
X473699Y602913I2004J0D01*
G01*
X477707Y616232D02*
G03*
X473699Y616232I-2004J0D01*
G01*
X477707Y602913D02*
G03*
X481716Y602913I2004J0D01*
G01*
X485724Y616232D02*
G03*
X481716Y616232I-2004J0D01*
G01*
X485724Y602913D02*
G03*
X489733Y602913I2004J0D01*
G01*
X493741Y616232D02*
G03*
X489733Y616232I-2004J0D01*
G01*
X493741Y602913D02*
G03*
X497750Y602913I2004J0D01*
G01*
X501758Y616232D02*
G03*
X497750Y616232I-2004J0D01*
G01*
X501758Y605254D02*
G03*
X503763Y603250I2004J0D01*
G01*
X712013Y637540D02*
G03*
X714017Y639544I0J2004D01*
G01*
X718026Y639544D02*
G03*
X714017Y639544I-2004J0D01*
G01*
X718026Y636818D02*
G03*
X722034Y636818I2004J0D01*
G01*
X726043Y654463D02*
G03*
X722034Y654463I-2004J0D01*
G01*
X726043Y634642D02*
G03*
X730051Y634642I2004J0D01*
G01*
X732056Y637540D02*
G03*
X730051Y635536I0J-2004D01*
G01*
X695706Y752388D02*
G03*
X695706Y749554I1417J-1417D01*
G01*
X695993Y752675D02*
G03*
X695993Y755510I-1417J1417D01*
G01*
X695993Y755510D02*
G03*
X693158Y755510I-1417J-1417D01*
G01*
X687257Y752443D02*
G03*
X690092Y752443I1417J1417D01*
G01*
X687257Y755277D02*
G03*
X687257Y752443I1417J-1417D01*
G01*
X697799Y765820D02*
G03*
X697799Y768654I-1417J1417D01*
G01*
X697799Y768654D02*
G03*
X694965Y768654I-1417J-1417D01*
G01*
X673772Y750295D02*
G03*
X676606Y750295I1417J1417D01*
G01*
X673772Y753130D02*
G03*
X673772Y750295I1417J-1417D01*
G01*
X692130Y771488D02*
G03*
X692130Y774323I-1417J1417D01*
G01*
X692130Y774323D02*
G03*
X689296Y774323I-1417J-1417D01*
G01*
X678699Y766561D02*
G03*
X681534Y766561I1417J1417D01*
G01*
X722551Y719554D02*
G03*
X724556Y717550I2004J0D01*
G01*
X722551Y730507D02*
G03*
X718543Y730507I-2004J0D01*
G01*
X714534Y708323D02*
G03*
X718543Y708323I2004J0D01*
G01*
X714534Y721972D02*
G03*
X710526Y721972I-2004J0D01*
G01*
X706517Y708323D02*
G03*
X710526Y708323I2004J0D01*
G01*
X706517Y721972D02*
G03*
X702509Y721972I-2004J0D01*
G01*
X700504Y717550D02*
G03*
X702509Y719554I0J2004D01*
G01*
X660487Y723813D02*
G03*
X657652Y723813I-1417J-1417D01*
G01*
X650327Y719322D02*
G03*
X653161Y719322I1417J1417D01*
G01*
X650327Y722157D02*
G03*
X650327Y719322I1417J-1417D01*
G01*
X664683Y736513D02*
G03*
X664683Y739348I-1417J1417D01*
G01*
X664683Y739348D02*
G03*
X661849Y739348I-1417J-1417D01*
G01*
X644658Y724991D02*
G03*
X647492Y724991I1417J1417D01*
G01*
X644658Y727826D02*
G03*
X644658Y724991I1417J-1417D01*
G01*
X659014Y742182D02*
G03*
X659014Y745017I-1417J1417D01*
G01*
X659014Y745017D02*
G03*
X656180Y745017I-1417J-1417D01*
G01*
X646314Y737986D02*
G03*
X649149Y737986I1417J1417D01*
G01*
X624586Y742228D02*
G03*
X624586Y739394I1417J-1417D01*
G01*
X625061Y742703D02*
G03*
X625061Y745537I-1417J1417D01*
G01*
X625061Y745537D02*
G03*
X622226Y745537I-1417J-1417D01*
G01*
X610322Y736467D02*
G03*
X613156Y736467I1417J1417D01*
G01*
X610322Y739302D02*
G03*
X610322Y736467I1417J-1417D01*
G01*
X623408Y752388D02*
G03*
X623408Y755223I-1417J1417D01*
G01*
X623408Y755223D02*
G03*
X620574Y755223I-1417J-1417D01*
G01*
X604653Y742136D02*
G03*
X607487Y742136I1417J1417D01*
G01*
X604653Y744971D02*
G03*
X604653Y742136I1417J-1417D01*
G01*
X616557Y756875D02*
G03*
X616557Y759710I-1417J1417D01*
G01*
X616557Y759710D02*
G03*
X613723Y759710I-1417J-1417D01*
G01*
X607579Y756401D02*
G03*
X610414Y756401I1417J1417D01*
G01*
X630007Y711113D02*
G03*
X627172Y711113I-1417J-1417D01*
G01*
X620013Y706788D02*
G03*
X622847Y706788I1417J1417D01*
G01*
X620013Y709623D02*
G03*
X620013Y706788I1417J-1417D01*
G01*
X632933Y722543D02*
G03*
X632933Y725378I-1417J1417D01*
G01*
X632933Y725378D02*
G03*
X630099Y725378I-1417J-1417D01*
G01*
X612908Y711021D02*
G03*
X615742Y711021I1417J1417D01*
G01*
X612908Y713856D02*
G03*
X612908Y711021I1417J-1417D01*
G01*
X627264Y728212D02*
G03*
X627264Y731047I-1417J1417D01*
G01*
X627264Y731047D02*
G03*
X624430Y731047I-1417J-1417D01*
G01*
X615834Y725286D02*
G03*
X618669Y725286I1417J1417D01*
G01*
X564509Y682631D02*
G03*
X561675Y682631I-1417J-1417D01*
G01*
X558840Y682630D02*
G03*
X561675Y682630I1417J1417D01*
G01*
X558840Y685465D02*
G03*
X558840Y682630I1417J-1417D01*
G01*
X568854Y695479D02*
G03*
X568854Y698313I-1417J1417D01*
G01*
X568854Y698313D02*
G03*
X566020Y698313I-1417J-1417D01*
G01*
X545409Y680537D02*
G03*
X548244Y680537I1417J1417D01*
G01*
X545409Y683372D02*
G03*
X545409Y680537I1417J-1417D01*
G01*
X563768Y701731D02*
G03*
X563768Y704565I-1417J1417D01*
G01*
X563768Y704565D02*
G03*
X560934Y704565I-1417J-1417D01*
G01*
X539740Y686206D02*
G03*
X542575Y686206I1417J1417D01*
G01*
X539740Y689041D02*
G03*
X539740Y686206I1417J-1417D01*
G01*
X558099Y707400D02*
G03*
X558099Y710234I-1417J1417D01*
G01*
X558099Y710234D02*
G03*
X555265Y710234I-1417J-1417D01*
G01*
X534072Y691875D02*
G03*
X536906Y691875I1417J1417D01*
G01*
X534072Y694709D02*
G03*
X534072Y691875I1417J-1417D01*
G01*
X546287Y706925D02*
G03*
X546287Y709760I-1417J1417D01*
G01*
X546287Y709760D02*
G03*
X543453Y709760I-1417J-1417D01*
G01*
X538999Y708141D02*
G03*
X541834Y708141I1417J1417D01*
G01*
X751682Y615490D02*
G03*
X753687Y613486I2004J0D01*
G01*
X751682Y615490D02*
G03*
X747674Y615490I-2004J0D01*
G01*
X743665Y600965D02*
G03*
X747674Y600965I2004J0D01*
G01*
X743665Y620097D02*
G03*
X739657Y620097I-2004J0D01*
G01*
X735648Y600504D02*
G03*
X739657Y600504I2004J0D01*
G01*
X735648Y620097D02*
G03*
X731640Y620097I-2004J0D01*
G01*
X727631Y600504D02*
G03*
X731640Y600504I2004J0D01*
G01*
X727631Y620097D02*
G03*
X723623Y620097I-2004J0D01*
G01*
X719614Y600504D02*
G03*
X723623Y600504I2004J0D01*
G01*
X719614Y620097D02*
G03*
X715606Y620097I-2004J0D01*
G01*
X711597Y600504D02*
G03*
X715606Y600504I2004J0D01*
G01*
X711597Y620097D02*
G03*
X707589Y620097I-2004J0D01*
G01*
X705584Y613486D02*
G03*
X707589Y615490I0J2004D01*
G01*
X601634Y716626D02*
X624840Y693420D01*
X601634Y719461D02*
X604216Y722043D01*
X593506Y717002D02*
X601382Y724877D01*
X590672Y717002D02*
X590672Y717002D01*
X590672Y717002D02*
X590672Y717002D01*
X590672D02*
X590672Y717002D01*
Y719836D02*
Y719836D01*
X601477Y730642D01*
X601477Y733476D02*
X601477Y733476D01*
X598643D02*
Y733476D01*
X587837Y722671D02*
X598643Y733476D01*
X585003Y722671D02*
X585003Y722671D01*
X585003Y722671D02*
X585003Y722671D01*
X585003D02*
X585003Y722671D01*
Y725505D02*
Y725505D01*
X595808Y736311D01*
X595808Y739145D02*
X595808Y739145D01*
X592974D02*
Y739145D01*
X582168Y728340D02*
X592974Y739145D01*
X579334Y731174D02*
Y731174D01*
X590139Y741980D01*
X590139Y744814D02*
X590139Y744814D01*
X587305D02*
Y744814D01*
X576499Y734008D02*
X587305Y744814D01*
X573665Y734008D02*
X573665Y734008D01*
X573665Y734008D02*
X573665Y734008D01*
X573665D02*
X573665Y734008D01*
Y736843D02*
Y736843D01*
X584466Y747644D01*
X584466Y750478D02*
X584466Y750478D01*
X581631D02*
Y750478D01*
X576124Y744971D02*
X581631Y750478D01*
X572770Y745490D02*
X573289Y744971D01*
X572770Y745490D02*
Y745490D01*
X572770Y745490D02*
X572770D01*
X569644Y748616D02*
X572770Y745490D01*
X426144Y742110D02*
X438746Y754712D01*
X420370Y741680D02*
X425106D01*
X439784Y755142D02*
X585370Y755142D01*
X439784Y755142D02*
X439784Y755142D01*
X426388Y733220D02*
X441784Y748616D01*
X442810Y749046D02*
X442822Y749046D01*
X568597D01*
X414020Y732790D02*
X425350D01*
X425623Y727710D02*
X427990D01*
X424180Y726516D02*
X425623Y727710D01*
X427990D02*
X444500Y744220D01*
X569644Y748616D02*
X569644Y748616D01*
X618412Y765888D02*
X645795Y738505D01*
X421640Y754380D02*
X433148Y765888D01*
X434186Y766318D02*
X617374Y766318D01*
X586408Y754712D02*
X615315Y725805D01*
X411480Y762567D02*
X424707Y775794D01*
X425745Y776224D02*
X668428Y776224D01*
X669466Y775794D02*
X678180Y767080D01*
X669726Y596463D02*
X671830Y594360D01*
X638810Y596900D02*
X668682D01*
X671422Y582930D02*
X671830D01*
X542290Y591820D02*
X661316D01*
X662358Y591386D02*
X670384Y583360D01*
X671422Y582930D02*
Y582930D01*
X769735Y581660D02*
X773294D01*
X767985Y583410D02*
Y583410D01*
X764485Y583410D02*
Y583410D01*
X762000Y581660D02*
X762734D01*
X773294D02*
X780089D01*
X758047D02*
X762000D01*
X780089D02*
X786130D01*
X665402Y842948D02*
X708152Y885698D01*
X506576Y842518D02*
X664364D01*
X497156Y823976D02*
X507570Y834390D01*
X496824Y823976D02*
X497156D01*
X507570Y834390D02*
X693420D01*
X501658Y837351D02*
Y838208D01*
X505538Y842088D01*
X590565Y704835D02*
Y709915D01*
X408864Y608748D02*
Y715552D01*
X409294Y607722D02*
X448820Y568196D01*
X449859Y567766D02*
Y567766D01*
X725410Y561516D02*
X759524Y595630D01*
X725408Y561514D02*
X725410Y561516D01*
X420216Y561086D02*
Y561086D01*
X724372D01*
X402944Y577750D02*
X419178Y561516D01*
X402514Y578788D02*
Y674446D01*
X732061Y555674D02*
X758047Y581660D01*
X732059Y555672D02*
X732061Y555674D01*
X417146D02*
X417152Y555668D01*
X418184Y555244D02*
X731022D01*
X418184D02*
X418184D01*
X741094Y550594D02*
X757180Y566680D01*
X741092Y550592D02*
X741094Y550594D01*
X413104Y550164D02*
X740056D01*
X413104D02*
X413104D01*
X412066Y550594D02*
X412072Y550588D01*
X666672Y654636D02*
X673862Y647446D01*
X666670Y654638D02*
X666672Y654636D01*
X592682Y655066D02*
X665634D01*
X592682D02*
X592682D01*
X591644Y655496D02*
X591650Y655490D01*
X735226Y826666D02*
X742950Y834390D01*
X691616Y826236D02*
X734187D01*
X734187D01*
X681990Y816610D02*
X691616Y826236D01*
X490982Y816610D02*
X681990D01*
X449859Y567766D02*
X632031D01*
X431211Y591820D02*
X486410D01*
X415092Y607940D02*
X431211Y591820D01*
X379730Y577261D02*
Y652121D01*
Y577261D02*
X412237Y544754D01*
X371531Y660320D02*
X379730Y652121D01*
X419100Y609600D02*
Y708660D01*
X415092Y717352D02*
X417074Y719334D01*
Y720085D01*
X419100Y609600D02*
X431800Y596900D01*
X419100Y708660D02*
X425450Y715010D01*
X415092Y607940D02*
Y717352D01*
X406768Y717648D02*
X408864Y715552D01*
X400050Y676910D02*
X402514Y674446D01*
X632694Y660476D02*
X787476D01*
X387350Y575310D02*
X412066Y550594D01*
X394970Y577850D02*
X417146Y555674D01*
X671119Y567766D02*
X671195Y567690D01*
X668117Y567766D02*
X671119D01*
X664833D02*
X668117D01*
X662829Y569770D02*
Y578985D01*
X658820Y567581D02*
Y578985D01*
X654812Y567581D02*
Y586569D01*
X650804Y567581D02*
Y586569D01*
X646795Y567581D02*
Y574651D01*
X642786Y567581D02*
Y574651D01*
X638778Y567581D02*
Y576437D01*
X634769Y569770D02*
Y576437D01*
X632031Y567766D02*
X632765D01*
X412237Y544754D02*
X749224D01*
X759460Y554990D01*
X597972Y619684D02*
X604170Y613486D01*
X524475Y619684D02*
X597972D01*
X519471Y614680D02*
X524475Y619684D01*
X510758Y605503D02*
X672813D01*
X673100Y605790D01*
X508506Y603250D02*
X510758Y605503D01*
X693420Y896620D02*
X704850Y908050D01*
X444500Y744220D02*
X556260D01*
X590565Y709915D01*
X601307Y691863D02*
X604054Y689115D01*
X601307Y694698D02*
X606866Y700257D01*
X606866Y703092D02*
X606866Y703091D01*
X584826Y683886D02*
X604031Y703091D01*
X581992Y683886D02*
X581992Y683886D01*
X581992Y683886D02*
X581992Y683886D01*
X581992D02*
X581992Y683886D01*
Y686721D02*
Y686721D01*
X603053Y707782D01*
X603053Y710616D02*
X603053Y710616D01*
X600218D02*
Y710616D01*
X593918Y704316D02*
X600218Y710616D01*
X591084Y704316D02*
X591084Y704316D01*
X590565Y704835D02*
X591084Y704316D01*
X590565Y704835D02*
X590565Y704835D01*
X604054Y689115D02*
X632694Y660476D01*
X604170Y613486D02*
X704850D01*
X519430Y614680D02*
X519471D01*
X394970Y577850D02*
Y669290D01*
X387350Y575310D02*
Y654050D01*
X435610Y603250D02*
X458470D01*
X425450Y613410D02*
X435610Y603250D01*
X425450Y613410D02*
Y704850D01*
X431800Y596900D02*
X516890D01*
X708660Y730250D02*
Y736600D01*
X624840Y693420D02*
X651510Y666750D01*
X698355D01*
X486410Y591820D02*
X501470D01*
X503475Y581480D02*
Y589816D01*
X507483Y581480D02*
Y590887D01*
X511492Y578838D02*
Y590887D01*
X515500Y578838D02*
Y590887D01*
X519509Y578838D02*
Y590887D01*
X523517Y578838D02*
Y590219D01*
X527526Y583588D02*
Y590219D01*
X531534Y583588D02*
Y589909D01*
X535543Y583588D02*
Y589909D01*
X539551Y583588D02*
Y589816D01*
X541556Y591820D02*
X542290D01*
X681971Y626110D02*
X694690D01*
X679967Y620778D02*
Y624106D01*
X675958Y620778D02*
Y631527D01*
X671950Y619498D02*
Y631527D01*
X667941Y619498D02*
Y631527D01*
X663933Y619498D02*
Y631527D01*
X659924Y619498D02*
Y631527D01*
X655916Y619498D02*
Y631527D01*
X651907Y619498D02*
Y631527D01*
X647899Y628114D02*
Y631527D01*
X645160Y626110D02*
X645894D01*
X694690D02*
X756920D01*
X438736D02*
X645160D01*
X516890Y596900D02*
X521828D01*
X523833Y598904D02*
Y599777D01*
X527841Y597833D02*
Y599777D01*
X531850Y597833D02*
Y599777D01*
X535858Y597833D02*
Y599777D01*
X539867Y597833D02*
Y599777D01*
X543875Y597833D02*
Y599777D01*
X547884Y597833D02*
Y599777D01*
X551892Y597833D02*
Y599777D01*
X555901Y597833D02*
Y599777D01*
X559909Y597833D02*
Y599777D01*
X563918Y597833D02*
Y599777D01*
X567926Y597833D02*
Y599777D01*
X571935Y597833D02*
Y599777D01*
X575943Y597833D02*
Y599777D01*
X579952Y597833D02*
Y599777D01*
X583960Y597833D02*
Y599777D01*
X587969Y597833D02*
Y599777D01*
X591978Y597833D02*
Y599777D01*
X595986Y597833D02*
Y599777D01*
X599995Y597833D02*
Y599777D01*
X604003Y597833D02*
Y599777D01*
X608012Y597833D02*
Y599777D01*
X612020Y597833D02*
Y599777D01*
X616029Y597833D02*
Y599777D01*
X620037Y597833D02*
Y599777D01*
X624046Y597833D02*
Y599777D01*
X628054Y597833D02*
Y599777D01*
X632063Y598904D02*
Y599777D01*
X634067Y596900D02*
X638810D01*
X458470Y603250D02*
X463677D01*
X465682Y605254D02*
Y611563D01*
X469690Y602913D02*
Y611563D01*
X473699Y602913D02*
Y616232D01*
X477707Y602913D02*
Y616232D01*
X481716Y602913D02*
Y616232D01*
X485724Y602913D02*
Y616232D01*
X489733Y602913D02*
Y616232D01*
X493741Y602913D02*
Y616232D01*
X497750Y602913D02*
Y616232D01*
X501758Y605254D02*
Y616232D01*
X503763Y603250D02*
X508506D01*
X488950Y647624D02*
X631266D01*
X641350Y637540D01*
X712013D01*
X714017Y639544D02*
Y639544D01*
X718026Y636818D02*
Y639544D01*
X722034Y636818D02*
Y654463D01*
X726043Y634642D02*
Y654463D01*
X730051Y634642D02*
Y635536D01*
X732056Y637540D02*
X732790D01*
X481389Y647624D02*
X488950D01*
X732790Y637540D02*
X748030D01*
X695706Y749554D02*
X703580Y741680D01*
X695706Y752388D02*
X695993Y752675D01*
X695993Y755510D02*
X695993Y755510D01*
X690092Y752443D02*
X693158Y755510D01*
X687257Y755277D02*
Y755277D01*
X697799Y765820D01*
X697799Y768654D02*
X697799Y768654D01*
X694965D02*
Y768654D01*
X676606Y750295D02*
X694965Y768654D01*
X673772Y750295D02*
X673772Y750295D01*
X673772Y750295D02*
X673772Y750295D01*
X673772D02*
X673772Y750295D01*
Y753130D02*
Y753130D01*
X692130Y771488D01*
X692130Y774323D02*
X692130Y774323D01*
X689296D02*
Y774323D01*
X681534Y766561D02*
X689296Y774323D01*
X678180Y767080D02*
X678699Y766561D01*
X703580Y741680D02*
X708660Y736600D01*
X724556Y717550D02*
X742950D01*
X722551Y719554D02*
Y730507D01*
X718543Y708323D02*
Y730507D01*
X714534Y708323D02*
Y721972D01*
X710526Y708323D02*
Y721972D01*
X706517Y708323D02*
Y721972D01*
X702509Y719554D02*
Y721972D01*
X699770Y717550D02*
X700504D01*
X742950D02*
X774700D01*
X692150D02*
X699770D01*
X660487Y723813D02*
X673100Y711200D01*
X660487Y723813D02*
X660487Y723813D01*
X653161Y719322D02*
X657652Y723813D01*
X650327Y722157D02*
Y722157D01*
X664683Y736513D01*
X664683Y739348D02*
X664683Y739348D01*
X661849D02*
Y739348D01*
X647492Y724991D02*
X661849Y739348D01*
X644658Y724991D02*
X644658Y724991D01*
X644658Y724991D02*
X644658Y724991D01*
X644658D02*
X644658Y724991D01*
Y727826D02*
Y727826D01*
X659014Y742182D01*
X659014Y745017D02*
X659014Y745017D01*
X656180D02*
Y745017D01*
X649149Y737986D02*
X656180Y745017D01*
X645795Y738505D02*
X646314Y737986D01*
X673100Y711200D02*
X681990Y702310D01*
X624586Y739394D02*
X630555Y733425D01*
X624586Y742228D02*
X625061Y742703D01*
X625061Y745537D02*
X625061Y745537D01*
X613156Y736467D02*
X622226Y745537D01*
X610322Y739302D02*
Y739302D01*
X623408Y752388D01*
X623408Y755223D02*
X623408Y755223D01*
X620574D02*
Y755223D01*
X607487Y742136D02*
X620574Y755223D01*
X604653Y742136D02*
X604653Y742136D01*
X604653Y742136D02*
X604653Y742136D01*
X604653D02*
X604653Y742136D01*
Y744971D02*
Y744971D01*
X616557Y756875D01*
X616557Y759710D02*
X616557Y759710D01*
X613723D02*
Y759710D01*
X610414Y756401D02*
X613723Y759710D01*
X607060Y756920D02*
X607579Y756401D01*
X630555Y733425D02*
X674370Y689610D01*
X602853Y761127D02*
X607060Y756920D01*
X630007Y711113D02*
X632460Y708660D01*
X630006Y711113D02*
X630007Y711113D01*
X622847Y706788D02*
X627172Y711113D01*
X620013Y709623D02*
X632933Y722543D01*
X632933Y725378D02*
X632933Y725378D01*
X630099D02*
Y725378D01*
X615742Y711021D02*
X630099Y725378D01*
X612908Y711021D02*
X612908Y711021D01*
X612908Y711021D02*
X612908Y711021D01*
X612908D02*
X612908Y711021D01*
Y713856D02*
Y713856D01*
X627264Y728212D01*
X627264Y731047D02*
X627264Y731047D01*
X624430D02*
Y731047D01*
X618669Y725286D02*
X624430Y731047D01*
X615315Y725805D02*
X615834Y725286D01*
X632460Y708660D02*
X661670Y679450D01*
X564509Y682631D02*
X568325Y678815D01*
X564509Y682631D02*
X564509Y682631D01*
X561675Y682630D02*
X561675Y682631D01*
X558840Y682630D02*
X558840Y682630D01*
X558840Y682630D02*
X558840Y682630D01*
X558840D02*
X558840Y682630D01*
Y685465D02*
X568854Y695479D01*
X568854Y698313D02*
X568854Y698313D01*
X548244Y680537D02*
X566020Y698313D01*
X545409Y680537D02*
X545409Y680537D01*
X545409Y680537D02*
X545409Y680537D01*
X545409D02*
X545409Y680537D01*
Y683372D02*
Y683372D01*
X563768Y701731D01*
X563768Y704565D02*
X563768Y704565D01*
X560934D02*
Y704565D01*
X542575Y686206D02*
X560934Y704565D01*
X539740Y689041D02*
Y689041D01*
X558099Y707400D01*
X558099Y710234D02*
X558099Y710234D01*
X555265D02*
Y710234D01*
X536906Y691875D02*
X555265Y710234D01*
X534072Y691875D02*
X534072Y691875D01*
X534072Y691875D02*
X534072Y691875D01*
X534072D02*
X534072Y691875D01*
Y694709D02*
Y694709D01*
X546287Y706925D01*
X546287Y709760D02*
X546287Y709760D01*
X543453D02*
Y709760D01*
X541834Y708141D02*
X543453Y709760D01*
X538480Y708660D02*
X538999Y708141D01*
X568325Y678815D02*
X591644Y655496D01*
X753687Y613486D02*
X759536D01*
X751682Y615490D02*
Y615490D01*
X747674Y600965D02*
Y615490D01*
X743665Y600965D02*
Y620097D01*
X739657Y600504D02*
Y620097D01*
X735648Y600504D02*
Y620097D01*
X731640Y600504D02*
Y620097D01*
X727631Y600504D02*
Y620097D01*
X723623Y600504D02*
Y620097D01*
X719614Y600504D02*
Y620097D01*
X715606Y600504D02*
Y620097D01*
X711597Y600504D02*
Y620097D01*
X707589Y615490D02*
Y620097D01*
X704850Y613486D02*
X705584D01*
X759536D02*
X783590Y637540D01*
X372540Y668860D02*
X387350Y654050D01*
X371981Y668860D02*
X372540D01*
X698355Y666750D02*
X701758Y670153D01*
X702310D01*
X410929Y748106D02*
X424239D01*
X410853Y748030D02*
X410929Y748106D01*
X435610Y628650D02*
X436196D01*
X449580Y679433D02*
X481389Y647624D01*
X449580Y679433D02*
Y717550D01*
X429078Y770692D02*
X639008D01*
X414037Y755650D02*
X429078Y770692D01*
X639008D02*
X692150Y717550D01*
X400050Y755650D02*
X414037D01*
X424239Y748106D02*
X437260Y761127D01*
X602853D01*
X500380Y736600D02*
X524493D01*
X538480Y708660D02*
Y722613D01*
X524493Y736600D02*
X538480Y722613D01*
X759524Y595630D02*
X784669D01*
X757180Y566680D02*
X782526D01*
X759460Y554990D02*
X783590D01*
X787476Y660476D02*
X788670Y661670D01*
X769679Y679450D02*
X776029Y673100D01*
X661670Y679450D02*
X769679D01*
X674370Y689610D02*
X775970D01*
X681990Y702310D02*
X774700D01*
X436196Y628650D02*
X438736Y626110D01*
X756920D02*
X778510Y647700D01*
X786130D01*
D12*
X480176Y896620D02*
G03*
X479111Y896179I0J-1506D01*
G01*
X372496Y789564D02*
G03*
X372053Y788497I1063J-1067D01*
G01*
X506875Y850325D02*
G03*
X507940Y849884I1065J1065D01*
G01*
X647945Y795849D02*
G03*
X646881Y796290I-1065J-1065D01*
G01*
X500380Y504836D02*
G03*
X499934Y505906I-1506J0D01*
G01*
X356295Y676015D02*
G03*
X355854Y674950I1065J-1065D01*
G01*
X355854Y538716D02*
G03*
X357360Y537210I1506J0D01*
G01*
X551621Y737429D02*
G03*
X550500Y737869I-1065J-1065D01*
G01*
X468890Y829570D02*
G03*
X469333Y830637I-1063J1067D01*
G01*
X487680Y505598D02*
G03*
X487234Y506668I-1506J0D01*
G01*
X445146Y806450D02*
G03*
X446211Y806891I0J1506D01*
G01*
X463737Y530165D02*
G03*
X462672Y530606I-1065J-1065D01*
G01*
X355413Y531047D02*
G03*
X356478Y530606I1065J1065D01*
G01*
X469077Y536763D02*
G03*
X468006Y537210I-1070J-1059D01*
G01*
X425239Y806450D02*
G03*
X424175Y806009I0J-1506D01*
G01*
X422264Y796290D02*
G03*
X421199Y795849I0J-1506D01*
G01*
X349250Y537210D02*
Y676154D01*
X374868Y701772D01*
X372053Y772491D02*
Y788497D01*
X480176Y896620D02*
X693420D01*
X372496Y789564D02*
X479111Y896179D01*
X372053Y788497D02*
X372053D01*
X498094Y859106D02*
Y859282D01*
Y859106D02*
X506875Y850325D01*
X507940Y849884D02*
X663203D01*
X507940Y849884D02*
Y849884D01*
X500380Y504836D02*
X500380Y449580D01*
X422264Y796290D02*
X646881Y796290D01*
X355854Y538716D02*
X355854Y674950D01*
X357360Y537210D02*
Y537210D01*
X551621Y737429D02*
X551621D01*
X579120Y709930D01*
X487680Y449580D02*
Y505598D01*
X446211Y806891D02*
X468890Y829570D01*
X425239Y806450D02*
X445146D01*
X356478Y530606D02*
X462672D01*
X349250Y537210D02*
X355413Y531047D01*
X370922Y771360D02*
X372053Y772491D01*
X663203Y849884D02*
X706129Y892810D01*
X744220D01*
X738886Y876046D02*
X749046D01*
X697230Y834390D02*
X738886Y876046D01*
X356295Y676015D02*
X378460Y698180D01*
X357360Y537210D02*
X468006D01*
X463737Y530165D02*
X487234Y506668D01*
X469077Y536763D02*
X499934Y505906D01*
X582141Y538480D02*
X661924D01*
X525780Y449580D02*
Y482119D01*
X582141Y538480D01*
X469333Y830637D02*
Y837799D01*
X374868Y756702D02*
X424175Y806009D01*
X647945Y795849D02*
X658934Y784860D01*
X378460Y753110D02*
X421199Y795849D01*
X374868Y701772D02*
Y756702D01*
X378460Y698180D02*
Y753110D01*
X541313Y737577D02*
X550500Y737869D01*
X744220Y892810D02*
X781050Y855980D01*
X370922Y771360D02*
X371618D01*
X579120Y709930D02*
X579198D01*
X693420Y834390D02*
X697230D01*
D28*
X449580Y449580D02*
D03*
D29*
X462280D02*
D03*
X474980D02*
D03*
X487680D02*
D03*
X500380D02*
D03*
X513080D02*
D03*
X525780D02*
D03*
X538480D02*
D03*
X551180D02*
D03*
X563880D02*
D03*
X576580D02*
D03*
X589280D02*
D03*
X601980D02*
D03*
X614680D02*
D03*
X627380D02*
D03*
X640080D02*
D03*
X652780D02*
D03*
X665480D02*
D03*
X678180D02*
D03*
X690880D02*
D03*
D30*
X424180Y726516D02*
D03*
X468630Y782498D02*
D03*
X366268Y583946D02*
D03*
X810686Y900554D02*
D03*
Y870554D02*
D03*
Y810554D02*
D03*
Y780554D02*
D03*
Y750554D02*
D03*
X795686Y900554D02*
D03*
X803186Y885554D02*
D03*
X795686Y870554D02*
D03*
X803186Y825554D02*
D03*
X795686Y810554D02*
D03*
X803186Y795554D02*
D03*
X795686Y780554D02*
D03*
X803186Y765554D02*
D03*
X795686Y750554D02*
D03*
X780686Y900554D02*
D03*
X788186Y885554D02*
D03*
X780686Y870554D02*
D03*
Y810554D02*
D03*
X788186Y795554D02*
D03*
X780686Y780554D02*
D03*
X788186Y765554D02*
D03*
Y735554D02*
D03*
X765686Y900554D02*
D03*
X773186Y885554D02*
D03*
X765686Y810554D02*
D03*
X773186Y795554D02*
D03*
X765686Y540554D02*
D03*
Y480554D02*
D03*
Y450554D02*
D03*
X758186Y855554D02*
D03*
Y825554D02*
D03*
X750686Y810554D02*
D03*
X758186Y795554D02*
D03*
Y465554D02*
D03*
X750686Y450554D02*
D03*
X743186Y855554D02*
D03*
X735686Y840554D02*
D03*
Y810554D02*
D03*
X743186Y465554D02*
D03*
X735686Y450554D02*
D03*
X728186Y855554D02*
D03*
X720686Y840554D02*
D03*
Y570554D02*
D03*
X728186Y465554D02*
D03*
X720686Y450554D02*
D03*
X713186Y585554D02*
D03*
Y465554D02*
D03*
X705686Y450554D02*
D03*
X698186Y465554D02*
D03*
X675686Y480554D02*
D03*
X683186Y465554D02*
D03*
X668186D02*
D03*
X653186D02*
D03*
X638186D02*
D03*
X473186D02*
D03*
X458186Y495554D02*
D03*
X435686Y480554D02*
D03*
X443186Y465554D02*
D03*
X428186D02*
D03*
X405686Y810554D02*
D03*
X413186Y465554D02*
D03*
X390686Y840554D02*
D03*
X398186Y825554D02*
D03*
X390686Y480554D02*
D03*
X398186Y465554D02*
D03*
X375686Y840554D02*
D03*
Y480554D02*
D03*
X383186Y465554D02*
D03*
X368186Y855554D02*
D03*
X360686Y840554D02*
D03*
X368186Y825554D02*
D03*
Y555554D02*
D03*
X360686Y480554D02*
D03*
X368186Y465554D02*
D03*
X353186Y855554D02*
D03*
X345686Y840554D02*
D03*
X353186Y765554D02*
D03*
X345686Y720554D02*
D03*
X372872Y571500D02*
D03*
X354028Y524708D02*
D03*
Y512572D02*
D03*
X391167Y910367D02*
D03*
X382845Y909640D02*
D03*
X383032Y863346D02*
D03*
X431230Y837607D02*
D03*
X441960Y828040D02*
D03*
X392684Y858266D02*
D03*
X708152Y885698D02*
D03*
X749046Y876046D02*
D03*
X704850Y908050D02*
D03*
X809752Y846074D02*
D03*
X781050Y855980D02*
D03*
X742950Y834390D02*
D03*
X516455Y902913D02*
D03*
X498335Y879667D02*
D03*
X498094Y859282D02*
D03*
X510286Y860806D02*
D03*
X516128Y867410D02*
D03*
X501658Y837351D02*
D03*
X521643Y825065D02*
D03*
X523335Y886392D02*
D03*
X686816Y882396D02*
D03*
X679274Y876007D02*
D03*
X496824Y823976D02*
D03*
X490982Y816610D02*
D03*
X416982Y572585D02*
D03*
X425376Y575310D02*
D03*
X411480Y580390D02*
D03*
X462788Y583184D02*
D03*
X471699Y582102D02*
D03*
X463042Y574548D02*
D03*
X371348Y634746D02*
D03*
X401066Y696722D02*
D03*
X400050Y676910D02*
D03*
X434086Y646194D02*
D03*
X446532Y643890D02*
D03*
X454406Y613410D02*
D03*
X443738Y609854D02*
D03*
X650440Y648008D02*
D03*
X673862Y647446D02*
D03*
X704850Y529844D02*
D03*
X661416Y645414D02*
D03*
X671195Y567690D02*
D03*
X547116Y574040D02*
D03*
X562983Y575410D02*
D03*
X551434Y581660D02*
D03*
X572491Y577174D02*
D03*
X535940Y575310D02*
D03*
X661924Y538480D02*
D03*
X574510Y613410D02*
D03*
X564896Y611886D02*
D03*
X450855Y787405D02*
D03*
X469333Y837799D02*
D03*
X658934Y784860D02*
D03*
X541313Y737577D02*
D03*
X528320Y723900D02*
D03*
X513080Y708660D02*
D03*
X481734Y834390D02*
D03*
X516715Y911399D02*
D03*
X365760Y783590D02*
D03*
X371618Y771360D02*
D03*
X579198Y709930D02*
D03*
X554990Y723900D02*
D03*
X538480Y825500D02*
D03*
X570225Y826765D02*
D03*
X561335D02*
D03*
X699770Y607211D02*
D03*
X643162Y582930D02*
D03*
X494030Y582351D02*
D03*
X367030Y722630D02*
D03*
X540577Y676525D02*
D03*
X536241Y654895D02*
D03*
X650240Y703580D02*
D03*
X350520Y690880D02*
D03*
Y703580D02*
D03*
X382619Y565499D02*
D03*
X347980Y824230D02*
D03*
X346710Y786130D02*
D03*
X356870D02*
D03*
X349250Y741680D02*
D03*
Y753110D02*
D03*
X454660Y825500D02*
D03*
X609600Y908639D02*
D03*
X598170D02*
D03*
X690880Y815340D02*
D03*
X681990Y825500D02*
D03*
X685800Y802564D02*
D03*
X687070Y788670D02*
D03*
X695960Y731520D02*
D03*
Y740410D02*
D03*
X708660Y730250D02*
D03*
X618783Y683260D02*
D03*
X616820Y692567D02*
D03*
X773430Y749300D02*
D03*
X772160Y778510D02*
D03*
X699770Y695960D02*
D03*
X698500Y709930D02*
D03*
X702820Y598680D02*
D03*
X814070Y595630D02*
D03*
X815340Y547370D02*
D03*
X741680Y480060D02*
D03*
X754380D02*
D03*
X775970Y511810D02*
D03*
X663465Y480816D02*
D03*
X652780Y481330D02*
D03*
X673100Y538480D02*
D03*
X701040Y580390D02*
D03*
X812800Y613410D02*
D03*
X815044Y581364D02*
D03*
X814070Y509270D02*
D03*
X815340Y535940D02*
D03*
X394970Y669290D02*
D03*
X626531Y619760D02*
D03*
X609600Y633730D02*
D03*
X600628Y582423D02*
D03*
X371531Y660320D02*
D03*
X371981Y668860D02*
D03*
X702310Y670153D02*
D03*
X613410Y581660D02*
D03*
X417074Y720085D02*
D03*
X414020Y732790D02*
D03*
X410853Y748030D02*
D03*
X552450Y826770D02*
D03*
X547370Y862330D02*
D03*
X544830Y871220D02*
D03*
X538423Y877570D02*
D03*
X531875Y884239D02*
D03*
X683260Y747567D02*
D03*
X406768Y717648D02*
D03*
X425450Y704850D02*
D03*
X435610Y628650D02*
D03*
X425450Y715010D02*
D03*
X449580Y717550D02*
D03*
X411480Y762567D02*
D03*
X400050Y755650D02*
D03*
X421640Y754380D02*
D03*
X420370Y741680D02*
D03*
X469900Y713740D02*
D03*
X459740Y784860D02*
D03*
Y648970D02*
D03*
X468630Y651510D02*
D03*
X457200Y701040D02*
D03*
X500380Y736600D02*
D03*
X671830Y582930D02*
D03*
Y594360D02*
D03*
X673100Y605790D02*
D03*
X697230Y537960D02*
D03*
X666750Y522320D02*
D03*
Y530860D02*
D03*
X781050Y527050D02*
D03*
X787400Y542290D02*
D03*
X774700Y717550D02*
D03*
X748030Y637540D02*
D03*
X776029Y673100D02*
D03*
X775970Y689610D02*
D03*
X774700Y702310D02*
D03*
X786130Y647700D02*
D03*
X783590Y637540D02*
D03*
X519430Y614680D02*
D03*
X438150Y637540D02*
D03*
X472440Y633730D02*
D03*
X477520Y641350D02*
D03*
X485140Y654050D02*
D03*
X784669Y595630D02*
D03*
X782526Y566680D02*
D03*
X783590Y554990D02*
D03*
X786130Y581660D02*
D03*
X788670Y661670D02*
D03*
X488950Y726440D02*
D03*
X481330Y715010D02*
D03*
X488893Y671830D02*
D03*
X494030Y664210D02*
D03*
X506730Y661670D02*
D03*
X518891Y667481D02*
D03*
X548640Y716280D02*
D03*
X473103Y678613D02*
D03*
X521255Y677465D02*
D03*
X503103Y674370D02*
D03*
X521970Y703580D02*
D03*
X500380Y701040D02*
D03*
X475505Y701565D02*
D03*
%TF.MD5,c583335d95d3f0a6c4b75e821cbdbdc4*%
M02*
