%TF.GenerationSoftware,Altium Limited,Altium Designer,20.2.5 (213)*%
G04 Layer_Color=128*
%FSLAX44Y44*%
%MOMM*%
%TF.SameCoordinates,159794D8-7842-4491-B27A-FE66E37C9FAE*%
%TF.FilePolarity,Positive*%
%TF.FileFunction,Paste,Bot*%
%TF.Part,Single*%
G01*
G75*
%TA.AperFunction,SMDPad,SMDef*%
%ADD18R,0.9000X1.0000*%
%ADD19R,1.0000X0.9000*%
%ADD25R,0.9500X0.8500*%
%ADD36R,1.1500X1.3500*%
%ADD37R,1.6500X1.2000*%
%ADD38R,1.4000X1.3000*%
%ADD39R,1.3000X0.3000*%
%ADD40R,2.2000X1.8000*%
%ADD41R,1.8000X1.2300*%
%ADD42R,0.3000X0.8500*%
%ADD43R,0.8000X2.0000*%
%TA.AperFunction,SMDPad,CuDef*%
%ADD44R,1.1938X0.5080*%
%TA.AperFunction,SMDPad,SMDef*%
G04:AMPARAMS|DCode=45|XSize=1mm|YSize=0.9mm|CornerRadius=0mm|HoleSize=0mm|Usage=FLASHONLY|Rotation=45.000|XOffset=0mm|YOffset=0mm|HoleType=Round|Shape=Rectangle|*
%AMROTATEDRECTD45*
4,1,4,-0.0354,-0.6718,-0.6718,-0.0354,0.0354,0.6718,0.6718,0.0354,-0.0354,-0.6718,0.0*
%
%ADD45ROTATEDRECTD45*%

D18*
X485540Y878840D02*
D03*
X472040D02*
D03*
X406000Y880110D02*
D03*
X419500D02*
D03*
X444970Y849630D02*
D03*
X458470D02*
D03*
X754780Y491490D02*
D03*
X741280D02*
D03*
X533800Y840740D02*
D03*
X520300D02*
D03*
X469538Y598424D02*
D03*
X456038D02*
D03*
X594760Y610870D02*
D03*
X581260D02*
D03*
D19*
X666750Y507530D02*
D03*
Y494030D02*
D03*
X613410Y621430D02*
D03*
Y607930D02*
D03*
X361442Y512426D02*
D03*
Y525926D02*
D03*
D25*
X500380Y470708D02*
D03*
Y483708D02*
D03*
D36*
X437020Y878840D02*
D03*
X454520D02*
D03*
D37*
X410210Y636240D02*
D03*
Y664240D02*
D03*
D38*
X430530Y671194D02*
D03*
Y655194D02*
D03*
D39*
X377710Y526088D02*
D03*
Y521088D02*
D03*
Y516088D02*
D03*
Y511088D02*
D03*
Y506088D02*
D03*
Y501088D02*
D03*
D40*
X410210Y545088D02*
D03*
Y482088D02*
D03*
D41*
X471640Y901700D02*
D03*
X497840D02*
D03*
X424580Y900430D02*
D03*
X398380D02*
D03*
D42*
X606810Y688340D02*
D03*
X601810D02*
D03*
X596810D02*
D03*
X586810D02*
D03*
X581810D02*
D03*
X576810D02*
D03*
X566810D02*
D03*
X561810D02*
D03*
X556810D02*
D03*
X546810D02*
D03*
X541810D02*
D03*
X536810D02*
D03*
X526810D02*
D03*
X521810D02*
D03*
X516810D02*
D03*
X506810D02*
D03*
X501810D02*
D03*
X496810D02*
D03*
X486810D02*
D03*
X481810D02*
D03*
X476810D02*
D03*
X466810D02*
D03*
X461810D02*
D03*
X456810D02*
D03*
X446810D02*
D03*
X441810D02*
D03*
X436810D02*
D03*
X426810D02*
D03*
X421810D02*
D03*
X416810D02*
D03*
X591810D02*
D03*
X571810D02*
D03*
X551810D02*
D03*
X531810D02*
D03*
X511810D02*
D03*
X491810D02*
D03*
X471810D02*
D03*
X451810D02*
D03*
X431810D02*
D03*
X411810D02*
D03*
D43*
X624912Y717860D02*
D03*
X394392Y717296D02*
D03*
D44*
X685546Y510680D02*
D03*
Y518680D02*
D03*
Y526680D02*
D03*
Y534680D02*
D03*
Y542680D02*
D03*
Y550680D02*
D03*
Y558680D02*
D03*
Y566680D02*
D03*
Y574680D02*
D03*
Y582680D02*
D03*
Y590680D02*
D03*
Y598680D02*
D03*
Y606680D02*
D03*
Y614680D02*
D03*
Y622680D02*
D03*
Y630680D02*
D03*
Y638680D02*
D03*
Y646680D02*
D03*
Y654680D02*
D03*
Y662680D02*
D03*
Y670680D02*
D03*
Y678680D02*
D03*
Y686680D02*
D03*
Y694680D02*
D03*
Y702680D02*
D03*
Y710680D02*
D03*
Y718680D02*
D03*
X800354D02*
D03*
Y710680D02*
D03*
Y702680D02*
D03*
Y694680D02*
D03*
Y686680D02*
D03*
Y678680D02*
D03*
Y670680D02*
D03*
Y662680D02*
D03*
Y654680D02*
D03*
Y646680D02*
D03*
Y638680D02*
D03*
Y630680D02*
D03*
Y622680D02*
D03*
Y614680D02*
D03*
Y606680D02*
D03*
Y598680D02*
D03*
Y590680D02*
D03*
Y582680D02*
D03*
Y574680D02*
D03*
Y566680D02*
D03*
Y558680D02*
D03*
Y550680D02*
D03*
Y542680D02*
D03*
Y534680D02*
D03*
Y526680D02*
D03*
Y518680D02*
D03*
Y510680D02*
D03*
D45*
X383847Y587703D02*
D03*
X393393Y578157D02*
D03*
%TF.MD5,2be073366b7cf4829c0812f051b26c8b*%
M02*
