M48
;Layer_Color=9474304
;FILE_FORMAT=4:4
METRIC,LZ
;TYPE=PLATED
T1F00S00C0.3000
T2F00S00C0.6000
%
T01
X0081407Y0050927
X0081534Y0053594
Y0054737
X00815044Y00581364
X0081407Y0059563
X008128Y0061341
X00810686Y00750554
X00795686
X00803186Y00765554
X00795686Y00780554
X00810686
X00780686
X0077216Y0077851
X00788186Y00765554
Y00735554
X0077343Y007493
X007747Y0071755
Y0070231
X0077597Y0068961
X00776029Y006731
X0078867Y0066167
X0078613Y006477
X0078359Y0063754
X0074803
X0070231Y00670153
X0069977Y0069596
X006985Y0070993
X0069596Y0073152
Y0074041
X0068326Y00747567
X0070866Y0073025
X0068707Y0078867
X00658934Y0078486
X0065024Y0070358
X0061682Y00692567
X00618783Y0068326
X006096Y0063373
X00626531Y0061976
X0061341Y0058166
X00600628Y00582423
X00572491Y00577174
X00562983Y0057541
X00547116Y0057404
X00551434Y0058166
X0053594Y0057531
X0049403Y00582351
X00471699Y00582102
X00462788Y00583184
X00463042Y00574548
X00425376Y0057531
X00416982Y00572585
X0041148Y0058039
X00443738Y00609854
X00454406Y0061341
X0043561Y0062865
X0043815Y0063754
X00434086Y00646194
X00446532Y0064389
X0045974Y0064897
X0046863Y0065151
X0047752Y0064135
X0047244Y0063373
X0048514Y0065405
X0049403Y0066421
X00488893Y0067183
X00503103Y0067437
X0050673Y0066167
X00518891Y00667481
X00521255Y00677465
X00540577Y00676525
X00536241Y00654895
X0051943Y0061468
X00564896Y00611886
X0057451Y0061341
X00643162Y0058293
X0067183
Y0059436
X006731Y0060579
X0069977Y00607211
X0070282Y0059868
X0070104Y0058039
X00713186Y00585554
X00720686Y00570554
X00671195Y0056769
X006731Y0053848
X00661924
X0066675Y0053086
Y0052232
X00663465Y00480816
X0065278Y0048133
X00653186Y00465554
X00668186
X00683186
X00698186
X00713186
X00728186
X00743186
X00758186
X0075438Y0048006
X00765686Y00480554
X0074168Y0048006
X00735686Y00450554
X00750686
X00765686
X00720686
X00705686
X00675686Y00480554
X00638186Y00465554
X0070485Y00529844
X0069723Y0053796
X00765686Y00540554
X007874Y0054229
X0078359Y0055499
X00782526Y0056668
X0078613Y0058166
X00784669Y0059563
X0078105Y0052705
X0077597Y0051181
X00673862Y00647446
X00661416Y00645414
X0065044Y00648008
X00579198Y0070993
X0054864Y0071628
X0055499Y007239
X0052832
X00541313Y00737577
X0050038Y007366
X0048895Y0072644
X0048133Y0071501
X004699Y0071374
X00475505Y00701565
X004572Y0070104
X0044958Y0071755
X0042545Y0071501
Y0070485
X0042418Y00726516
X00417074Y00720085
X00406768Y00717648
X0041402Y0073279
X0042037Y0074168
X0042164Y0075438
X00410853Y0074803
X0041148Y00762567
X0040005Y0075565
X00401066Y00696722
X0040005Y0067691
X00473103Y00678613
X0050038Y0070104
X0051308Y0070866
X0052197Y0070358
X0046863Y00782498
X0045974Y0078486
X00450855Y00787405
X00458186Y00495554
X00435686Y00480554
X00443186Y00465554
X00428186
X00413186
X00398186
X00473186
X00383186
X00368186
X00360686Y00480554
X00375686
X00390686
X00354028Y00512572
Y00524708
X00368186Y00555554
X00372872Y005715
X00382619Y00565499
X00366268Y00583946
X00371348Y00634746
X00371531Y0066032
X00371981Y0066886
X0039497Y0066929
X0035052Y0069088
Y0070358
X00345686Y00720554
X0036703Y0072263
X0034925Y0074168
Y0075311
X00353186Y00765554
X00371618Y0077136
X0036576Y0078359
X0035687Y0078613
X0034671
X0034798Y0082423
X00345686Y00840554
X00360686
X00375686
X00390686
X00392684Y00858266
X00383032Y00863346
X00368186Y00855554
X00353186
X00368186Y00825554
X00382845Y0090964
X00391167Y00910367
X00398186Y00825554
X00405686Y00810554
X0043123Y00837607
X0044196Y0082804
X0045466Y008255
X00469333Y00837799
X00481734Y0083439
X00501658Y00837351
X00496824Y00823976
X00490982Y0081661
X00521643Y00825065
X0053848Y008255
X0055245Y0082677
X00561335Y00826765
X00570225
X0054737Y0086233
X0054483Y0087122
X00538423Y0087757
X00531875Y00884239
X00523335Y00886392
X00516455Y00902913
X00516715Y00911399
X00516128Y0086741
X00510286Y00860806
X00498094Y00859282
X00498335Y00879667
X0059817Y00908639
X006096
X0070485Y0090805
X00708152Y00885698
X00686816Y00882396
X00679274Y00876007
X0068199Y008255
X0069088Y0081534
X006858Y00802564
X00735686Y00810554
X00750686
X00765686
X00780686
X00788186Y00795554
X00773186
X00758186
Y00825554
X0074295Y0083439
X00735686Y00840554
X00720686
X00728186Y00855554
X00743186
X00758186
X0078105Y0085598
X00780686Y00870554
X00788186Y00885554
X00773186
X00765686Y00900554
X00780686
X00749046Y00876046
X00795686Y00870554
X00810686
X00803186Y00885554
X00795686Y00900554
X00810686
X00809752Y00846074
X00803186Y00825554
X00795686Y00810554
X00810686
X00803186Y00795554
T02
X0044958Y0044958
X0046228
X0047498
X0048768
X0050038
X0051308
X0052578
X0053848
X0055118
X0056388
X0057658
X0058928
X0060198
X0061468
X0062738
X0064008
X0065278
X0066548
X0067818
X0069088
M30
