%TF.GenerationSoftware,Altium Limited,Altium Designer,20.2.5 (213)*%
G04 Layer_Color=8388736*
%FSLAX44Y44*%
%MOMM*%
%TF.SameCoordinates,159794D8-7842-4491-B27A-FE66E37C9FAE*%
%TF.FilePolarity,Negative*%
%TF.FileFunction,Soldermask,Top*%
%TF.Part,Single*%
G01*
G75*
%TA.AperFunction,SMDPad,CuDef*%
%ADD21R,1.1938X0.3048*%
%ADD22R,0.3048X1.1938*%
D21*
X383040Y798860D02*
D03*
Y803860D02*
D03*
Y683860D02*
D03*
Y678860D02*
D03*
Y663860D02*
D03*
Y668860D02*
D03*
Y673860D02*
D03*
Y688860D02*
D03*
X638040Y828860D02*
D03*
Y823860D02*
D03*
Y818860D02*
D03*
Y813860D02*
D03*
Y808860D02*
D03*
Y803860D02*
D03*
Y798860D02*
D03*
Y793860D02*
D03*
Y788860D02*
D03*
Y783860D02*
D03*
Y778860D02*
D03*
Y773860D02*
D03*
Y768860D02*
D03*
Y763860D02*
D03*
Y758860D02*
D03*
Y753860D02*
D03*
Y748860D02*
D03*
Y743860D02*
D03*
Y738860D02*
D03*
Y733860D02*
D03*
Y728860D02*
D03*
Y723860D02*
D03*
Y718860D02*
D03*
Y713860D02*
D03*
Y708860D02*
D03*
Y703860D02*
D03*
Y698860D02*
D03*
Y693860D02*
D03*
Y688860D02*
D03*
Y683860D02*
D03*
Y678860D02*
D03*
Y673860D02*
D03*
Y668860D02*
D03*
Y663860D02*
D03*
Y658860D02*
D03*
Y653860D02*
D03*
Y648860D02*
D03*
Y643860D02*
D03*
Y638860D02*
D03*
Y633860D02*
D03*
Y628860D02*
D03*
Y623860D02*
D03*
Y618860D02*
D03*
Y613860D02*
D03*
X383040Y613860D02*
D03*
Y618860D02*
D03*
Y623860D02*
D03*
Y628860D02*
D03*
Y633860D02*
D03*
Y638860D02*
D03*
Y643860D02*
D03*
Y648860D02*
D03*
Y653860D02*
D03*
Y658860D02*
D03*
Y693860D02*
D03*
Y698860D02*
D03*
Y703860D02*
D03*
Y708860D02*
D03*
Y713860D02*
D03*
Y718860D02*
D03*
Y723860D02*
D03*
Y728860D02*
D03*
Y733860D02*
D03*
Y738860D02*
D03*
Y743860D02*
D03*
Y748860D02*
D03*
Y753860D02*
D03*
Y758860D02*
D03*
Y763860D02*
D03*
Y768860D02*
D03*
Y773860D02*
D03*
Y778860D02*
D03*
Y783860D02*
D03*
Y788860D02*
D03*
Y793860D02*
D03*
Y808860D02*
D03*
Y813860D02*
D03*
Y818860D02*
D03*
Y823860D02*
D03*
Y828860D02*
D03*
D22*
X543040Y848860D02*
D03*
X538040D02*
D03*
X533040D02*
D03*
X528040D02*
D03*
X618040Y593860D02*
D03*
X613040D02*
D03*
X608040D02*
D03*
X603040D02*
D03*
X598040D02*
D03*
X593040D02*
D03*
X588040D02*
D03*
X583040D02*
D03*
X578040D02*
D03*
X573040D02*
D03*
X568040D02*
D03*
X563040D02*
D03*
X558040D02*
D03*
X553040D02*
D03*
X548040D02*
D03*
X543040D02*
D03*
X538040D02*
D03*
X533040D02*
D03*
X528040D02*
D03*
X523040D02*
D03*
X518040D02*
D03*
X513040D02*
D03*
X508040D02*
D03*
X503040D02*
D03*
X498040D02*
D03*
X493040D02*
D03*
X488040D02*
D03*
X483040D02*
D03*
X478040D02*
D03*
X473040D02*
D03*
X468040D02*
D03*
X463040D02*
D03*
X458040D02*
D03*
X453040D02*
D03*
X448040D02*
D03*
X443040D02*
D03*
X438040D02*
D03*
X433040D02*
D03*
X428040D02*
D03*
X423040D02*
D03*
X418040D02*
D03*
X413040D02*
D03*
X408040D02*
D03*
X403040D02*
D03*
X403040Y848860D02*
D03*
X408040D02*
D03*
X413040D02*
D03*
X418040D02*
D03*
X423040D02*
D03*
X428040D02*
D03*
X433040D02*
D03*
X438040D02*
D03*
X443040D02*
D03*
X448040D02*
D03*
X453040D02*
D03*
X458040D02*
D03*
X463040D02*
D03*
X468040D02*
D03*
X473040D02*
D03*
X478040D02*
D03*
X483040D02*
D03*
X488040D02*
D03*
X493040D02*
D03*
X498040D02*
D03*
X503040D02*
D03*
X508040D02*
D03*
X513040D02*
D03*
X518040D02*
D03*
X523040D02*
D03*
X548040D02*
D03*
X553040D02*
D03*
X558040D02*
D03*
X563040D02*
D03*
X568040D02*
D03*
X573040D02*
D03*
X578040D02*
D03*
X583040D02*
D03*
X588040D02*
D03*
X593040D02*
D03*
X598040D02*
D03*
X603040D02*
D03*
X608040D02*
D03*
X613040D02*
D03*
X618040D02*
D03*
%TF.MD5,0cc6b94832653698abf35740c5dcb10f*%
M02*
