%TF.GenerationSoftware,Altium Limited,Altium Designer,20.2.5 (213)*%
G04 Layer_Color=0*
%FSLAX44Y44*%
%MOMM*%
%TF.SameCoordinates,159794D8-7842-4491-B27A-FE66E37C9FAE*%
%TF.FilePolarity,Positive*%
%TF.FileFunction,Profile,NP*%
%TF.Part,Single*%
G01*
G75*
%TA.AperFunction,Profile*%
%ADD63C,0.0254*%
G36*
X362015Y866071D02*
X360045D01*
X356181Y866840D01*
X352541Y868348D01*
X349265Y870536D01*
X346480Y873322D01*
X344291Y876598D01*
X342783Y880238D01*
X342015Y884102D01*
Y886071D01*
Y888041D01*
X342783Y891905D01*
X344291Y895545D01*
X346480Y898821D01*
X349265Y901607D01*
X352541Y903795D01*
X356181Y905303D01*
X360045Y906071D01*
X362015D01*
X363984D01*
X367848Y905303D01*
X371488Y903795D01*
X374764Y901607D01*
X377550Y898821D01*
X379738Y895545D01*
X381246Y891905D01*
X382015Y888041D01*
Y886071D01*
Y884102D01*
X381246Y880238D01*
X379738Y876598D01*
X377550Y873322D01*
X374764Y870536D01*
X371488Y868348D01*
X367848Y866840D01*
X363984Y866071D01*
X362015D01*
D01*
D02*
G37*
G36*
X773348Y470295D02*
Y468325D01*
X774117Y464461D01*
X775625Y460821D01*
X777813Y457546D01*
X780599Y454760D01*
X783875Y452571D01*
X787515Y451064D01*
X791379Y450295D01*
X793348D01*
X795318D01*
X799182Y451064D01*
X802822Y452571D01*
X806098Y454760D01*
X808884Y457546D01*
X811072Y460821D01*
X812580Y464461D01*
X813348Y468325D01*
Y470295D01*
Y472265D01*
X812580Y476129D01*
X811072Y479769D01*
X808884Y483044D01*
X806098Y485830D01*
X802822Y488019D01*
X799182Y489526D01*
X795318Y490295D01*
X793348D01*
X791379D01*
X787515Y489526D01*
X783875Y488019D01*
X780599Y485830D01*
X777813Y483044D01*
X775625Y479769D01*
X774117Y476129D01*
X773348Y472265D01*
Y470295D01*
D01*
D02*
G37*
D63*
X823802Y925830D02*
X823802Y430022D01*
X327738Y430022D01*
X327738Y925830D01*
X823802Y925830D01*
%TF.MD5,f52fe7f09970db1e8f5d9f84d4d41289*%
M02*
