%TF.GenerationSoftware,Altium Limited,Altium Designer,20.2.5 (213)*%
G04 Layer_Physical_Order=4*
G04 Layer_Color=128*
%FSLAX44Y44*%
%MOMM*%
%TF.SameCoordinates,159794D8-7842-4491-B27A-FE66E37C9FAE*%
%TF.FilePolarity,Negative*%
%TF.FileFunction,Copper,L4,Inr,Plane*%
%TF.Part,Single*%
G01*
G75*
%TA.AperFunction,NonConductor*%
%ADD31C,1.0160*%
%TA.AperFunction,ComponentPad*%
%ADD32C,1.2112*%
%TA.AperFunction,ViaPad*%
%ADD33C,0.9112*%
G36*
X367848Y905303D02*
X371488Y903795D01*
X374764Y901607D01*
X377550Y898821D01*
X379738Y895545D01*
X381246Y891905D01*
X382015Y888041D01*
Y886071D01*
Y884102D01*
X381246Y880238D01*
X379738Y876598D01*
X377550Y873322D01*
X374764Y870536D01*
X371488Y868348D01*
X367848Y866840D01*
X363984Y866071D01*
X360045D01*
X356181Y866840D01*
X352541Y868348D01*
X349265Y870536D01*
X346480Y873322D01*
X344291Y876598D01*
X342783Y880238D01*
X342015Y884102D01*
Y886071D01*
Y888041D01*
X342783Y891905D01*
X344291Y895545D01*
X346480Y898821D01*
X349265Y901607D01*
X352541Y903795D01*
X356181Y905303D01*
X360045Y906071D01*
X363984D01*
X367848Y905303D01*
D02*
G37*
G36*
X799182Y489526D02*
X802822Y488019D01*
X806098Y485830D01*
X808884Y483044D01*
X811072Y479769D01*
X812580Y476129D01*
X813348Y472265D01*
Y470295D01*
Y468325D01*
X812580Y464461D01*
X811072Y460821D01*
X808884Y457546D01*
X806098Y454760D01*
X802822Y452571D01*
X799182Y451064D01*
X795318Y450295D01*
X791379D01*
X787515Y451064D01*
X783875Y452571D01*
X780599Y454760D01*
X777813Y457546D01*
X775625Y460821D01*
X774117Y464461D01*
X773348Y468325D01*
Y470295D01*
Y472265D01*
X774117Y476129D01*
X775625Y479769D01*
X777813Y483044D01*
X780599Y485830D01*
X783875Y488019D01*
X787515Y489526D01*
X791379Y490295D01*
X795318D01*
X799182Y489526D01*
D02*
G37*
D31*
X795318Y490295D02*
X799182Y489526D01*
X802822Y488019D01*
X806098Y485830D01*
X808884Y483044D01*
X811072Y479769D01*
X812580Y476129D01*
X813348Y472265D01*
Y470295D02*
Y472265D01*
Y468325D02*
Y470295D01*
X812580Y464461D02*
X813348Y468325D01*
X811072Y460821D02*
X812580Y464461D01*
X808884Y457546D02*
X811072Y460821D01*
X806098Y454760D02*
X808884Y457546D01*
X802822Y452571D02*
X806098Y454760D01*
X799182Y451064D02*
X802822Y452571D01*
X795318Y450295D02*
X799182Y451064D01*
X791379Y450295D02*
X795318D01*
X787515Y451064D02*
X791379Y450295D01*
X783875Y452571D02*
X787515Y451064D01*
X780599Y454760D02*
X783875Y452571D01*
X777813Y457546D02*
X780599Y454760D01*
X775625Y460821D02*
X777813Y457546D01*
X774117Y464461D02*
X775625Y460821D01*
X773348Y468325D02*
X774117Y464461D01*
X773348Y468325D02*
Y470295D01*
Y472265D01*
X774117Y476129D01*
X775625Y479769D01*
X777813Y483044D01*
X780599Y485830D01*
X783875Y488019D01*
X787515Y489526D01*
X791379Y490295D01*
X795318D01*
X363984Y906071D02*
X367848Y905303D01*
X371488Y903795D01*
X374764Y901607D01*
X377550Y898821D01*
X379738Y895545D01*
X381246Y891905D01*
X382015Y888041D01*
Y886071D02*
Y888041D01*
Y884102D02*
Y886071D01*
X381246Y880238D02*
X382015Y884102D01*
X379738Y876598D02*
X381246Y880238D01*
X377550Y873322D02*
X379738Y876598D01*
X374764Y870536D02*
X377550Y873322D01*
X371488Y868348D02*
X374764Y870536D01*
X367848Y866840D02*
X371488Y868348D01*
X363984Y866071D02*
X367848Y866840D01*
X360045Y866071D02*
X363984D01*
X356181Y866840D02*
X360045Y866071D01*
X352541Y868348D02*
X356181Y866840D01*
X349265Y870536D02*
X352541Y868348D01*
X346480Y873322D02*
X349265Y870536D01*
X344291Y876598D02*
X346480Y873322D01*
X342783Y880238D02*
X344291Y876598D01*
X342015Y884102D02*
X342783Y880238D01*
X342015Y884102D02*
Y886071D01*
Y888041D01*
X342783Y891905D01*
X344291Y895545D01*
X346480Y898821D01*
X349265Y901607D01*
X352541Y903795D01*
X356181Y905303D01*
X360045Y906071D01*
X363984D01*
X823802Y430022D02*
X823802Y925830D01*
X327738Y925830D02*
X823802Y925830D01*
X327738Y430022D02*
X327738Y925830D01*
X327738Y430022D02*
X823802Y430022D01*
D32*
X449580Y449580D02*
D03*
X474980D02*
D03*
X487680D02*
D03*
X500380D02*
D03*
X513080D02*
D03*
X525780D02*
D03*
X538480D02*
D03*
X551180D02*
D03*
X563880D02*
D03*
X576580D02*
D03*
X589280D02*
D03*
X601980D02*
D03*
X614680D02*
D03*
X627380D02*
D03*
X640080D02*
D03*
X652780D02*
D03*
X690880D02*
D03*
D33*
X424180Y726516D02*
D03*
X468630Y782498D02*
D03*
X366268Y583946D02*
D03*
X810686Y900554D02*
D03*
Y870554D02*
D03*
Y810554D02*
D03*
Y780554D02*
D03*
Y750554D02*
D03*
X795686Y900554D02*
D03*
X803186Y885554D02*
D03*
X795686Y870554D02*
D03*
X803186Y825554D02*
D03*
X795686Y810554D02*
D03*
X803186Y795554D02*
D03*
X795686Y780554D02*
D03*
X803186Y765554D02*
D03*
X795686Y750554D02*
D03*
X780686Y900554D02*
D03*
X788186Y885554D02*
D03*
X780686Y870554D02*
D03*
Y810554D02*
D03*
X788186Y795554D02*
D03*
X780686Y780554D02*
D03*
X788186Y765554D02*
D03*
Y735554D02*
D03*
X765686Y900554D02*
D03*
X773186Y885554D02*
D03*
X765686Y810554D02*
D03*
X773186Y795554D02*
D03*
X765686Y540554D02*
D03*
Y480554D02*
D03*
Y450554D02*
D03*
X758186Y855554D02*
D03*
Y825554D02*
D03*
X750686Y810554D02*
D03*
X758186Y795554D02*
D03*
Y465554D02*
D03*
X750686Y450554D02*
D03*
X743186Y855554D02*
D03*
X735686Y840554D02*
D03*
Y810554D02*
D03*
X743186Y465554D02*
D03*
X735686Y450554D02*
D03*
X728186Y855554D02*
D03*
X720686Y840554D02*
D03*
Y570554D02*
D03*
X728186Y465554D02*
D03*
X720686Y450554D02*
D03*
X713186Y585554D02*
D03*
Y465554D02*
D03*
X705686Y450554D02*
D03*
X698186Y465554D02*
D03*
X675686Y480554D02*
D03*
X683186Y465554D02*
D03*
X668186D02*
D03*
X653186D02*
D03*
X638186D02*
D03*
X473186D02*
D03*
X458186Y495554D02*
D03*
X435686Y480554D02*
D03*
X443186Y465554D02*
D03*
X428186D02*
D03*
X405686Y810554D02*
D03*
X413186Y465554D02*
D03*
X390686Y840554D02*
D03*
X398186Y825554D02*
D03*
X390686Y480554D02*
D03*
X398186Y465554D02*
D03*
X375686Y840554D02*
D03*
Y480554D02*
D03*
X383186Y465554D02*
D03*
X368186Y855554D02*
D03*
X360686Y840554D02*
D03*
X368186Y825554D02*
D03*
Y555554D02*
D03*
X360686Y480554D02*
D03*
X368186Y465554D02*
D03*
X353186Y855554D02*
D03*
X345686Y840554D02*
D03*
X353186Y765554D02*
D03*
X345686Y720554D02*
D03*
X354028Y512572D02*
D03*
X391167Y910367D02*
D03*
X382845Y909640D02*
D03*
X383032Y863346D02*
D03*
X431230Y837607D02*
D03*
X441960Y828040D02*
D03*
X392684Y858266D02*
D03*
X708152Y885698D02*
D03*
X749046Y876046D02*
D03*
X704850Y908050D02*
D03*
X809752Y846074D02*
D03*
X781050Y855980D02*
D03*
X742950Y834390D02*
D03*
X516455Y902913D02*
D03*
X498335Y879667D02*
D03*
X498094Y859282D02*
D03*
X510286Y860806D02*
D03*
X516128Y867410D02*
D03*
X501658Y837351D02*
D03*
X523335Y886392D02*
D03*
X679274Y876007D02*
D03*
X496824Y823976D02*
D03*
X490982Y816610D02*
D03*
X416982Y572585D02*
D03*
X425376Y575310D02*
D03*
X462788Y583184D02*
D03*
X463042Y574548D02*
D03*
X401066Y696722D02*
D03*
X400050Y676910D02*
D03*
X434086Y646194D02*
D03*
X443738Y609854D02*
D03*
X650440Y648008D02*
D03*
X673862Y647446D02*
D03*
X704850Y529844D02*
D03*
X661416Y645414D02*
D03*
X671195Y567690D02*
D03*
X547116Y574040D02*
D03*
X562983Y575410D02*
D03*
X551434Y581660D02*
D03*
X572491Y577174D02*
D03*
X535940Y575310D02*
D03*
X661924Y538480D02*
D03*
X574510Y613410D02*
D03*
X564896Y611886D02*
D03*
X450855Y787405D02*
D03*
X469333Y837799D02*
D03*
X658934Y784860D02*
D03*
X541313Y737577D02*
D03*
X528320Y723900D02*
D03*
X513080Y708660D02*
D03*
X481734Y834390D02*
D03*
X516715Y911399D02*
D03*
X365760Y783590D02*
D03*
X371618Y771360D02*
D03*
X579198Y709930D02*
D03*
X554990Y723900D02*
D03*
X538480Y825500D02*
D03*
X570225Y826765D02*
D03*
X561335D02*
D03*
X643162Y582930D02*
D03*
X494030Y582351D02*
D03*
X367030Y722630D02*
D03*
X540577Y676525D02*
D03*
X536241Y654895D02*
D03*
X650240Y703580D02*
D03*
X350520D02*
D03*
X382619Y565499D02*
D03*
X347980Y824230D02*
D03*
X346710Y786130D02*
D03*
X349250Y753110D02*
D03*
X609600Y908639D02*
D03*
X681990Y825500D02*
D03*
X685800Y802564D02*
D03*
X687070Y788670D02*
D03*
X695960Y731520D02*
D03*
X708660Y730250D02*
D03*
X618783Y683260D02*
D03*
X773430Y749300D02*
D03*
X699770Y695960D02*
D03*
X702820Y598680D02*
D03*
X754380Y480060D02*
D03*
X775970Y511810D02*
D03*
X663465Y480816D02*
D03*
X673100Y538480D02*
D03*
X812800Y613410D02*
D03*
X815044Y581364D02*
D03*
X814070Y509270D02*
D03*
X815340Y535940D02*
D03*
X394970Y669290D02*
D03*
X626531Y619760D02*
D03*
X371531Y660320D02*
D03*
X371981Y668860D02*
D03*
X702310Y670153D02*
D03*
X613410Y581660D02*
D03*
X417074Y720085D02*
D03*
X414020Y732790D02*
D03*
X410853Y748030D02*
D03*
X552450Y826770D02*
D03*
X547370Y862330D02*
D03*
X544830Y871220D02*
D03*
X538423Y877570D02*
D03*
X531875Y884239D02*
D03*
X683260Y747567D02*
D03*
X406768Y717648D02*
D03*
X425450Y704850D02*
D03*
X435610Y628650D02*
D03*
X425450Y715010D02*
D03*
X449580Y717550D02*
D03*
X411480Y762567D02*
D03*
X400050Y755650D02*
D03*
X421640Y754380D02*
D03*
X420370Y741680D02*
D03*
X469900Y713740D02*
D03*
X459740Y784860D02*
D03*
Y648970D02*
D03*
X468630Y651510D02*
D03*
X457200Y701040D02*
D03*
X500380Y736600D02*
D03*
X671830Y582930D02*
D03*
Y594360D02*
D03*
X673100Y605790D02*
D03*
X697230Y537960D02*
D03*
X666750Y522320D02*
D03*
Y530860D02*
D03*
X781050Y527050D02*
D03*
X787400Y542290D02*
D03*
X774700Y717550D02*
D03*
X748030Y637540D02*
D03*
X776029Y673100D02*
D03*
X775970Y689610D02*
D03*
X774700Y702310D02*
D03*
X786130Y647700D02*
D03*
X783590Y637540D02*
D03*
X519430Y614680D02*
D03*
X438150Y637540D02*
D03*
X472440Y633730D02*
D03*
X477520Y641350D02*
D03*
X485140Y654050D02*
D03*
X784669Y595630D02*
D03*
X782526Y566680D02*
D03*
X783590Y554990D02*
D03*
X786130Y581660D02*
D03*
X788670Y661670D02*
D03*
X488950Y726440D02*
D03*
X481330Y715010D02*
D03*
X488893Y671830D02*
D03*
X494030Y664210D02*
D03*
X506730Y661670D02*
D03*
X518891Y667481D02*
D03*
X548640Y716280D02*
D03*
X473103Y678613D02*
D03*
X521255Y677465D02*
D03*
X503103Y674370D02*
D03*
X521970Y703580D02*
D03*
X500380Y701040D02*
D03*
X475505Y701565D02*
D03*
%TF.MD5,5d6a42554ad6508f588874c113be9453*%
M02*
