%TF.GenerationSoftware,Altium Limited,Altium Designer,20.2.5 (213)*%
G04 Layer_Color=255*
%FSLAX44Y44*%
%MOMM*%
%TF.SameCoordinates,159794D8-7842-4491-B27A-FE66E37C9FAE*%
%TF.FilePolarity,Positive*%
%TF.FileFunction,Pads,Top*%
%TF.Part,Single*%
G01*
G75*
%TA.AperFunction,SMDPad,SMDef*%
G04:AMPARAMS|DCode=15|XSize=1.65mm|YSize=0.58mm|CornerRadius=0.0725mm|HoleSize=0mm|Usage=FLASHONLY|Rotation=135.000|XOffset=0mm|YOffset=0mm|HoleType=Round|Shape=RoundedRectangle|*
%AMROUNDEDRECTD15*
21,1,1.6500,0.4350,0,0,135.0*
21,1,1.5050,0.5800,0,0,135.0*
1,1,0.1450,-0.3783,0.6859*
1,1,0.1450,0.6859,-0.3783*
1,1,0.1450,0.3783,-0.6859*
1,1,0.1450,-0.6859,0.3783*
%
%ADD15ROUNDEDRECTD15*%
G04:AMPARAMS|DCode=16|XSize=0.95mm|YSize=0.85mm|CornerRadius=0mm|HoleSize=0mm|Usage=FLASHONLY|Rotation=225.000|XOffset=0mm|YOffset=0mm|HoleType=Round|Shape=Rectangle|*
%AMROTATEDRECTD16*
4,1,4,0.0354,0.6364,0.6364,0.0354,-0.0354,-0.6364,-0.6364,-0.0354,0.0354,0.6364,0.0*
%
%ADD16ROTATEDRECTD16*%

%ADD17R,1.8000X2.2300*%
%ADD18R,0.9000X1.0000*%
%ADD19R,1.0000X0.9000*%
%ADD20R,1.8000X1.2000*%
%TA.AperFunction,SMDPad,CuDef*%
%ADD21R,1.1938X0.3048*%
%ADD22R,0.3048X1.1938*%
%TA.AperFunction,SMDPad,SMDef*%
%ADD23R,0.8500X0.9500*%
G04:AMPARAMS|DCode=24|XSize=1mm|YSize=0.9mm|CornerRadius=0mm|HoleSize=0mm|Usage=FLASHONLY|Rotation=315.000|XOffset=0mm|YOffset=0mm|HoleType=Round|Shape=Rectangle|*
%AMROTATEDRECTD24*
4,1,4,-0.6718,0.0354,-0.0354,0.6718,0.6718,-0.0354,0.0354,-0.6718,-0.6718,0.0354,0.0*
%
%ADD24ROTATEDRECTD24*%

%ADD25R,0.9500X0.8500*%
%ADD26R,2.2300X1.8000*%
%TA.AperFunction,ComponentPad*%
%ADD28R,1.0000X1.0000*%
%ADD29C,1.0000*%
D15*
X773879Y828590D02*
D03*
X782860Y837570D02*
D03*
X791840Y846550D02*
D03*
X800820Y855531D02*
D03*
X750121Y906230D02*
D03*
X741140Y897250D02*
D03*
X732160Y888270D02*
D03*
X723180Y879289D02*
D03*
D16*
X467384Y503150D02*
D03*
X458192Y512342D02*
D03*
D17*
X582940Y558800D02*
D03*
X612140D02*
D03*
D18*
X756310Y755390D02*
D03*
X742810D02*
D03*
X756050Y737870D02*
D03*
X742550D02*
D03*
X596500Y868680D02*
D03*
X610000D02*
D03*
X361080Y797560D02*
D03*
X347580D02*
D03*
D19*
X685800Y700640D02*
D03*
Y714140D02*
D03*
X662940Y684130D02*
D03*
Y697630D02*
D03*
X656590Y825900D02*
D03*
Y812400D02*
D03*
X673100Y825900D02*
D03*
Y812400D02*
D03*
X499618Y887076D02*
D03*
Y900576D02*
D03*
X400050Y887260D02*
D03*
Y873760D02*
D03*
X360680Y753510D02*
D03*
Y740010D02*
D03*
X361950Y690480D02*
D03*
Y703980D02*
D03*
X661670Y739540D02*
D03*
Y726040D02*
D03*
X685546Y599930D02*
D03*
Y613430D02*
D03*
X706120Y553320D02*
D03*
Y566820D02*
D03*
X802640Y546500D02*
D03*
Y533000D02*
D03*
Y594760D02*
D03*
Y581260D02*
D03*
D20*
X476438Y877508D02*
D03*
X436438Y877508D02*
D03*
Y901508D02*
D03*
X476438D02*
D03*
D21*
X383040Y798860D02*
D03*
Y803860D02*
D03*
Y683860D02*
D03*
Y678860D02*
D03*
Y663860D02*
D03*
Y668860D02*
D03*
Y673860D02*
D03*
Y688860D02*
D03*
X638040Y828860D02*
D03*
Y823860D02*
D03*
Y818860D02*
D03*
Y813860D02*
D03*
Y808860D02*
D03*
Y803860D02*
D03*
Y798860D02*
D03*
Y793860D02*
D03*
Y788860D02*
D03*
Y783860D02*
D03*
Y778860D02*
D03*
Y773860D02*
D03*
Y768860D02*
D03*
Y763860D02*
D03*
Y758860D02*
D03*
Y753860D02*
D03*
Y748860D02*
D03*
Y743860D02*
D03*
Y738860D02*
D03*
Y733860D02*
D03*
Y728860D02*
D03*
Y723860D02*
D03*
Y718860D02*
D03*
Y713860D02*
D03*
Y708860D02*
D03*
Y703860D02*
D03*
Y698860D02*
D03*
Y693860D02*
D03*
Y688860D02*
D03*
Y683860D02*
D03*
Y678860D02*
D03*
Y673860D02*
D03*
Y668860D02*
D03*
Y663860D02*
D03*
Y658860D02*
D03*
Y653860D02*
D03*
Y648860D02*
D03*
Y643860D02*
D03*
Y638860D02*
D03*
Y633860D02*
D03*
Y628860D02*
D03*
Y623860D02*
D03*
Y618860D02*
D03*
Y613860D02*
D03*
X383040Y613860D02*
D03*
Y618860D02*
D03*
Y623860D02*
D03*
Y628860D02*
D03*
Y633860D02*
D03*
Y638860D02*
D03*
Y643860D02*
D03*
Y648860D02*
D03*
Y653860D02*
D03*
Y658860D02*
D03*
Y693860D02*
D03*
Y698860D02*
D03*
Y703860D02*
D03*
Y708860D02*
D03*
Y713860D02*
D03*
Y718860D02*
D03*
Y723860D02*
D03*
Y728860D02*
D03*
Y733860D02*
D03*
Y738860D02*
D03*
Y743860D02*
D03*
Y748860D02*
D03*
Y753860D02*
D03*
Y758860D02*
D03*
Y763860D02*
D03*
Y768860D02*
D03*
Y773860D02*
D03*
Y778860D02*
D03*
Y783860D02*
D03*
Y788860D02*
D03*
Y793860D02*
D03*
Y808860D02*
D03*
Y813860D02*
D03*
Y818860D02*
D03*
Y823860D02*
D03*
Y828860D02*
D03*
D22*
X543040Y848860D02*
D03*
X538040D02*
D03*
X533040D02*
D03*
X528040D02*
D03*
X618040Y593860D02*
D03*
X613040D02*
D03*
X608040D02*
D03*
X603040D02*
D03*
X598040D02*
D03*
X593040D02*
D03*
X588040D02*
D03*
X583040D02*
D03*
X578040D02*
D03*
X573040D02*
D03*
X568040D02*
D03*
X563040D02*
D03*
X558040D02*
D03*
X553040D02*
D03*
X548040D02*
D03*
X543040D02*
D03*
X538040D02*
D03*
X533040D02*
D03*
X528040D02*
D03*
X523040D02*
D03*
X518040D02*
D03*
X513040D02*
D03*
X508040D02*
D03*
X503040D02*
D03*
X498040D02*
D03*
X493040D02*
D03*
X488040D02*
D03*
X483040D02*
D03*
X478040D02*
D03*
X473040D02*
D03*
X468040D02*
D03*
X463040D02*
D03*
X458040D02*
D03*
X453040D02*
D03*
X448040D02*
D03*
X443040D02*
D03*
X438040D02*
D03*
X433040D02*
D03*
X428040D02*
D03*
X423040D02*
D03*
X418040D02*
D03*
X413040D02*
D03*
X408040D02*
D03*
X403040D02*
D03*
X403040Y848860D02*
D03*
X408040D02*
D03*
X413040D02*
D03*
X418040D02*
D03*
X423040D02*
D03*
X428040D02*
D03*
X433040D02*
D03*
X438040D02*
D03*
X443040D02*
D03*
X448040D02*
D03*
X453040D02*
D03*
X458040D02*
D03*
X463040D02*
D03*
X468040D02*
D03*
X473040D02*
D03*
X478040D02*
D03*
X483040D02*
D03*
X488040D02*
D03*
X493040D02*
D03*
X498040D02*
D03*
X503040D02*
D03*
X508040D02*
D03*
X513040D02*
D03*
X518040D02*
D03*
X523040D02*
D03*
X548040D02*
D03*
X553040D02*
D03*
X558040D02*
D03*
X563040D02*
D03*
X568040D02*
D03*
X573040D02*
D03*
X578040D02*
D03*
X583040D02*
D03*
X588040D02*
D03*
X593040D02*
D03*
X598040D02*
D03*
X603040D02*
D03*
X608040D02*
D03*
X613040D02*
D03*
X618040D02*
D03*
D23*
X347830Y814070D02*
D03*
X360830D02*
D03*
D24*
X694997Y858065D02*
D03*
X704543Y867611D02*
D03*
D25*
X417830Y872340D02*
D03*
Y885340D02*
D03*
D26*
X354076Y600334D02*
D03*
Y629534D02*
D03*
D28*
X449580Y449580D02*
D03*
D29*
X462280D02*
D03*
X474980D02*
D03*
X487680D02*
D03*
X500380D02*
D03*
X513080D02*
D03*
X525780D02*
D03*
X538480D02*
D03*
X551180D02*
D03*
X563880D02*
D03*
X576580D02*
D03*
X589280D02*
D03*
X601980D02*
D03*
X614680D02*
D03*
X627380D02*
D03*
X640080D02*
D03*
X652780D02*
D03*
X665480D02*
D03*
X678180D02*
D03*
X690880D02*
D03*
%TF.MD5,3a91192a24fc68bff6f71272bce14a3e*%
M02*
