%TF.GenerationSoftware,Altium Limited,Altium Designer,20.2.5 (213)*%
G04 Layer_Color=32768*
%FSLAX44Y44*%
%MOMM*%
%TF.SameCoordinates,159794D8-7842-4491-B27A-FE66E37C9FAE*%
%TF.FilePolarity,Positive*%
%TF.FileFunction,Other,Mechanical_15*%
%TF.Part,Single*%
G01*
G75*
%TA.AperFunction,NonConductor*%
%ADD50C,0.1000*%
%ADD62C,0.0500*%
D50*
X474040Y878840D02*
X483540D01*
X478790Y874090D02*
Y883590D01*
X408000Y880110D02*
X417500D01*
X412750Y875360D02*
Y884860D01*
X446970Y849630D02*
X456470D01*
X451720Y844880D02*
Y854380D01*
X440770Y878840D02*
X450770D01*
X445770Y873840D02*
Y883840D01*
X410210Y645240D02*
Y655240D01*
X405210Y650240D02*
X415210D01*
X425530Y663194D02*
X435530D01*
X430530Y658194D02*
Y668194D01*
X662000Y500780D02*
X671500D01*
X666750Y496030D02*
Y505530D01*
X743280Y491490D02*
X752780D01*
X748030Y486740D02*
Y496240D01*
X459429Y511105D02*
X466147Y504387D01*
X459429D02*
X466147Y511105D01*
X592540Y558800D02*
X602540D01*
X597540Y553800D02*
Y563800D01*
X744810Y755390D02*
X754310D01*
X749560Y750640D02*
Y760140D01*
X744550Y737870D02*
X754050D01*
X749300Y733120D02*
Y742620D01*
X685800Y702640D02*
Y712140D01*
X681050Y707390D02*
X690550D01*
X662940Y686130D02*
Y695630D01*
X658190Y690880D02*
X667690D01*
X656590Y814400D02*
Y823900D01*
X651840Y819150D02*
X661340D01*
X673100Y814400D02*
Y823900D01*
X668350Y819150D02*
X677850D01*
X603250Y863930D02*
Y873430D01*
X598500Y868680D02*
X608000D01*
X499618Y889076D02*
Y898576D01*
X494868Y893826D02*
X504368D01*
X479740Y901700D02*
X489740D01*
X484740Y896700D02*
Y906700D01*
X406480Y900430D02*
X416480D01*
X411480Y895430D02*
Y905430D01*
X400050Y875760D02*
Y885260D01*
X395300Y880510D02*
X404800D01*
X354330Y792810D02*
Y802310D01*
X349580Y797560D02*
X359080D01*
X349580Y814070D02*
X359080D01*
X354330Y809320D02*
Y818820D01*
X360680Y742010D02*
Y751510D01*
X355930Y746760D02*
X365430D01*
X357200Y697230D02*
X366700D01*
X361950Y692480D02*
Y701980D01*
X696411Y866197D02*
X703129Y859479D01*
X696411Y859479D02*
X703129Y866197D01*
X495630Y477208D02*
X505130D01*
X500380Y472458D02*
Y481958D01*
X608660Y614680D02*
X618160D01*
X613410Y609930D02*
Y619430D01*
X656920Y732790D02*
X666420D01*
X661670Y728040D02*
Y737540D01*
X522300Y840740D02*
X531800D01*
X527050Y835990D02*
Y845490D01*
X385261Y579571D02*
X391979Y586289D01*
X385261Y586289D02*
X391979Y579571D01*
X462788Y593674D02*
Y603174D01*
X458038Y598424D02*
X467538D01*
X685546Y601930D02*
Y611430D01*
X680796Y606680D02*
X690296D01*
X706120Y555320D02*
Y564820D01*
X701370Y560070D02*
X710870D01*
X797890Y539750D02*
X807390D01*
X802640Y535000D02*
Y544500D01*
X797890Y588010D02*
X807390D01*
X802640Y583260D02*
Y592760D01*
X413080Y878840D02*
X422580D01*
X417830Y874090D02*
Y883590D01*
X349076Y614934D02*
X359076D01*
X354076Y609934D02*
Y619934D01*
X588010Y606120D02*
Y615620D01*
X583260Y610870D02*
X592760D01*
X356692Y519176D02*
X366192D01*
X361442Y514426D02*
Y523926D01*
D62*
X708366Y879678D02*
X774268Y813776D01*
X749732Y921044D02*
X815634Y855142D01*
X774268Y813776D02*
X815634Y855142D01*
X708366Y879678D02*
X749732Y921044D01*
X492290Y886340D02*
X492290Y871340D01*
X465290D02*
X465290Y886340D01*
X492290D01*
X465290Y871340D02*
X492290D01*
X399250Y887610D02*
X399250Y872610D01*
X426250D02*
X426250Y887610D01*
X399250Y872610D02*
X426250D01*
X399250Y887610D02*
X426250D01*
X438220Y857130D02*
X438220Y842130D01*
X465220D02*
X465220Y857130D01*
X438220Y842130D02*
X465220D01*
X438220Y857130D02*
X465220D01*
X428770Y869340D02*
Y888340D01*
X462770Y869340D02*
Y888340D01*
X428770Y869340D02*
X462770D01*
X428770Y888340D02*
X462770D01*
X399210Y627740D02*
X421210D01*
X399210Y672740D02*
X421210D01*
Y627740D02*
Y672740D01*
X399210Y627740D02*
Y672740D01*
X421030Y646194D02*
Y680194D01*
X440030Y646194D02*
Y680194D01*
X421030D02*
X440030D01*
X421030Y646194D02*
X440030Y646194D01*
X368710Y556588D02*
X446210D01*
Y470588D02*
Y556588D01*
X368710Y470588D02*
X446210D01*
X368710D02*
Y556588D01*
X659250Y487280D02*
Y514280D01*
X674250Y487280D02*
Y514280D01*
X659250Y514280D02*
X674250Y514280D01*
X659250Y487280D02*
X674250Y487280D01*
X761530Y483990D02*
Y498990D01*
X734530Y483990D02*
Y498990D01*
X761530D01*
X734530Y483990D02*
X761530D01*
X467031Y492897D02*
X477637Y503503D01*
X447939Y511989D02*
X458545Y522595D01*
X447939Y511989D02*
X467031Y492897D01*
X458545Y522595D02*
X477637Y503503D01*
X571440Y541800D02*
Y575800D01*
X623640Y541800D02*
Y575800D01*
X571440D02*
X623640D01*
X571440Y541800D02*
X623640D01*
X763060Y747890D02*
X763060Y762890D01*
X736060D02*
X736060Y747890D01*
X763060D01*
X736060Y762890D02*
X763060D01*
X762800Y730370D02*
X762800Y745370D01*
X735800D02*
X735800Y730370D01*
X762800D01*
X735800Y745370D02*
X762800D01*
X678300Y693890D02*
X693300D01*
X678300Y720890D02*
X693300D01*
X678300Y693890D02*
Y720890D01*
X693300Y693890D02*
Y720890D01*
X655440Y677380D02*
X670440D01*
X655440Y704380D02*
X670440D01*
X655440Y677380D02*
Y704380D01*
X670440Y677380D02*
Y704380D01*
X649090Y832650D02*
X664090Y832650D01*
X649090Y805650D02*
X664090Y805650D01*
Y832650D01*
X649090Y805650D02*
Y832650D01*
X665600D02*
X680600Y832650D01*
X665600Y805650D02*
X680600Y805650D01*
Y832650D01*
X665600Y805650D02*
Y832650D01*
X589750Y876180D02*
X616750D01*
X589750Y861180D02*
X616750D01*
X589750Y876180D02*
X589750Y861180D01*
X616750D02*
X616750Y876180D01*
X492118Y880326D02*
X507118Y880326D01*
X492118Y907326D02*
X507118Y907326D01*
X492118Y880326D02*
Y907326D01*
X507118Y880326D02*
Y907326D01*
X509340Y890700D02*
Y912700D01*
X460140Y890700D02*
X509340D01*
X460140Y912700D02*
X509340D01*
X460140Y890700D02*
Y912700D01*
X487938Y910008D02*
X487938Y869008D01*
X424938Y910008D02*
X487938Y910008D01*
X424938Y910008D02*
X424938Y869008D01*
X487938D01*
X386880Y889430D02*
Y911430D01*
X436080D01*
X386880Y889430D02*
X436080D01*
Y911430D01*
X392550Y894010D02*
X407550Y894010D01*
X392550Y867010D02*
X407550D01*
Y894010D01*
X392550Y867010D02*
Y894010D01*
X340830Y790060D02*
X367830D01*
X340830Y805060D02*
X367830D01*
X367830Y790060D02*
X367830Y805060D01*
X340830Y790060D02*
X340830Y805060D01*
X340830Y806570D02*
Y821570D01*
X367830Y806570D02*
Y821570D01*
X340830D02*
X367830D01*
X340830Y806570D02*
X367830D01*
X353180Y760260D02*
X368180Y760260D01*
X353180Y733260D02*
X368180Y733260D01*
Y760260D01*
X353180Y733260D02*
Y760260D01*
X354450Y683730D02*
Y710730D01*
X369450Y683730D02*
Y710730D01*
X354450Y683730D02*
X369450Y683730D01*
X354450Y710730D02*
X369450Y710730D01*
X684921Y858595D02*
X704013Y877687D01*
X695527Y847989D02*
X714619Y867081D01*
X684921Y858595D02*
X695527Y847989D01*
X704013Y877687D02*
X714619Y867081D01*
X507880Y463708D02*
Y490708D01*
X492880Y463708D02*
Y490708D01*
Y463708D02*
X507880Y463708D01*
X492880Y490708D02*
X507880D01*
X605910Y601180D02*
Y628180D01*
X620910Y601180D02*
Y628180D01*
X605910Y628180D02*
X620910Y628180D01*
X605910Y601180D02*
X620910Y601180D01*
X669170Y719290D02*
Y746290D01*
X654170Y719290D02*
Y746290D01*
X669170Y746290D01*
X654170Y719290D02*
X669170Y719290D01*
X540550Y848240D02*
X540550Y833240D01*
X513550D02*
X513550Y848240D01*
X540550D01*
X513550Y833240D02*
X540550D01*
X373771Y587173D02*
X392863Y568081D01*
X384377Y597779D02*
X403469Y578687D01*
X373771Y587173D02*
X384377Y597779D01*
X392863Y568081D02*
X403469Y578687D01*
X449288Y605924D02*
X476288D01*
X449288Y590924D02*
X476288D01*
X476288Y605924D01*
X449288D02*
X449288Y590924D01*
X678046Y593180D02*
X693046D01*
X678046Y620180D02*
X693046D01*
X678046Y593180D02*
Y620180D01*
X693046Y593180D02*
Y620180D01*
X698620Y546570D02*
X713620Y546570D01*
X698620Y573570D02*
X713620Y573570D01*
X698620Y546570D02*
Y573570D01*
X713620Y546570D02*
Y573570D01*
X810140Y526250D02*
Y553250D01*
X795140Y526250D02*
Y553250D01*
X810140D01*
X795140Y526250D02*
X810140D01*
Y574510D02*
Y601510D01*
X795140Y574510D02*
Y601510D01*
X810140D01*
X795140Y574510D02*
X810140D01*
X410330Y865340D02*
Y892340D01*
X425330Y865340D02*
Y892340D01*
X410330Y865340D02*
X425330Y865340D01*
X410330Y892340D02*
X425330D01*
X337076Y588834D02*
Y641034D01*
X371076Y588834D02*
Y641034D01*
X337076Y588834D02*
X371076D01*
X337076Y641034D02*
X371076D01*
X574510Y618370D02*
X601510D01*
X574510Y603370D02*
X601510D01*
X601510Y618370D01*
X574510D02*
X574510Y603370D01*
X368942Y505676D02*
Y532676D01*
X353942Y505676D02*
Y532676D01*
Y505676D02*
X368942Y505676D01*
X353942Y532676D02*
X368942Y532676D01*
%TF.MD5,1fc1487ed4c77db9cccd3a479e337d10*%
M02*
